<svg width="180" height="393" viewBox="0 0 180 393" fill="none" xmlns="http://www.w3.org/2000/svg">
<path d="M148.011 179.099C148.011 179.099 117.522 164.981 76.5564 170.607C76.5564 170.607 84.6152 88.2879 87.3314 77.2592C90.0475 66.2305 148.519 79.9007 148.519 79.9007C148.519 79.9007 144.325 112.733 144.683 132.97C145.042 153.206 150.653 175.681 148.011 179.099Z" fill="#263238"/>
<path opacity="0.4" d="M148.011 179.099C148.011 179.099 117.522 164.981 76.5564 170.607C76.5564 170.607 84.6152 88.2879 87.3314 77.2592C90.0475 66.2305 148.519 79.9007 148.519 79.9007C148.519 79.9007 144.325 112.733 144.683 132.97C145.042 153.206 150.653 175.681 148.011 179.099Z" fill="white"/>
<path d="M60.5582 382.048L71.1541 385.047L73.6762 368.556L75.0492 359.737L64.4384 356.737L62.6475 368.556L60.5582 382.048Z" fill="#FBC6BF"/>
<path d="M121.492 382.913L132.416 384.361L132.521 368.556L132.596 358.737L121.642 357.304L121.582 368.556L121.492 382.913Z" fill="#FBC6BF"/>
<path opacity="0.2" d="M121.641 357.304L121.581 368.556H132.52L132.595 358.737L121.641 357.304Z" fill="black"/>
<path opacity="0.2" d="M62.6478 368.556H73.6765L75.0495 359.737L64.4387 356.737L62.6478 368.556Z" fill="black"/>
<path d="M20.1897 70.4093L11.116 64.2457L9.29529 76.2743C9.29529 76.2743 17.7123 81.2887 20.115 76.8265L20.1897 70.4093Z" fill="#FBC6BF"/>
<path d="M0.266235 63.7086L2.20631 74.5731L9.2951 76.2744L11.1158 64.2459L0.266235 63.7086Z" fill="#FBC6BF"/>
<path d="M33.0836 77.7518L17.8166 68.8125L13.7573 76.3192L27.5319 84.7511L33.0836 77.7518Z" fill="#FBC6BF"/>
<path d="M89.1969 58.4851C84.7198 59.7984 60.1105 90.213 58.454 89.9146C56.2602 89.5265 24.383 70.9763 24.383 70.9763L18.8314 84.1689C18.8314 84.1689 50.1713 108.48 58.8569 107.808C66.7367 107.196 92.9726 83.2287 92.9726 83.2287L89.1969 58.4851Z" fill="#263238"/>
<path opacity="0.7" d="M18.8167 84.169C18.8167 84.169 50.1566 108.48 58.8572 107.808C62.215 107.555 68.9307 103.033 75.5121 97.9287C84.347 91.0936 92.9878 83.2139 92.9878 83.2139L90.9283 69.7825L89.1972 58.4553C84.72 59.7686 60.1107 90.1833 58.4542 89.8848C56.2604 89.4968 24.3832 70.9316 24.3832 70.9316L18.8167 84.169Z" fill="white"/>
<path opacity="0.1" d="M75.5117 97.9286C84.3466 91.0935 92.9874 83.2137 92.9874 83.2137L90.928 69.7823C90.3915 70.0772 89.8908 70.4327 89.4356 70.8419C82.9885 76.2742 77.3473 86.691 75.5117 97.9286Z" fill="black"/>
<path d="M60.6926 380.391L72.7361 380.063C72.955 380.056 73.1694 380.126 73.3433 380.259C73.5171 380.392 73.64 380.581 73.6913 380.794L76.2283 390.479C76.2889 390.711 76.2965 390.954 76.2506 391.189C76.2047 391.424 76.1065 391.646 75.9631 391.838C75.8198 392.03 75.635 392.188 75.4226 392.299C75.2101 392.41 74.9754 392.471 74.7359 392.479C70.3931 392.479 64.1102 392.479 58.663 392.584C52.2756 392.748 48.2164 392.434 40.7545 392.584C36.2773 392.703 34.785 388.181 36.6952 387.718C45.2465 385.614 50.828 386.032 58.1108 381.256C58.8765 380.738 59.7692 380.439 60.6926 380.391Z" fill="#263238"/>
<path d="M59.6629 381.928C57.9019 382.331 54.753 382.853 53.5143 381.809C53.3337 381.659 53.1909 381.469 53.0976 381.254C53.0042 381.038 52.963 380.804 52.9771 380.57C52.9782 380.426 53.0158 380.285 53.0863 380.16C53.1567 380.035 53.2578 379.929 53.38 379.854C54.6933 379.063 59.2002 381.197 59.7077 381.436C59.757 381.46 59.7978 381.498 59.8245 381.546C59.8512 381.594 59.8625 381.65 59.8569 381.704C59.8574 381.759 59.838 381.812 59.8023 381.853C59.7665 381.894 59.7169 381.921 59.6629 381.928ZM53.6934 380.271H53.5889C53.5409 380.301 53.5016 380.343 53.4753 380.393C53.449 380.443 53.4368 380.499 53.4397 380.555C53.4261 380.712 53.4501 380.869 53.5098 381.015C53.5696 381.16 53.6632 381.289 53.7829 381.391C54.4843 381.973 56.3051 382.018 58.7227 381.555C56.9766 380.809 54.5291 379.973 53.7233 380.301L53.6934 380.271Z" fill="#80BCFF"/>
<path d="M59.6629 381.928C59.6327 381.942 59.5995 381.95 59.5659 381.95C59.5323 381.95 59.4992 381.942 59.469 381.928C58.1258 381.376 55.3947 379.077 55.5589 377.824C55.5589 377.54 55.7977 377.167 56.4991 377.078C56.7622 377.034 57.0316 377.048 57.289 377.117C57.5465 377.187 57.786 377.311 57.9915 377.481C59.4839 378.585 59.842 381.54 59.857 381.659C59.8617 381.703 59.8561 381.748 59.8406 381.789C59.825 381.831 59.7999 381.868 59.7674 381.898L59.6629 381.928ZM56.3051 377.645C56.0962 377.734 56.0812 377.854 56.0812 377.898C55.9768 378.645 57.8423 380.45 59.2302 381.226C59.0556 379.977 58.5037 378.811 57.6483 377.884C57.3421 377.649 56.957 377.542 56.5738 377.585L56.3051 377.645Z" fill="#80BCFF"/>
<path d="M121.925 380.391L133.953 380.062C134.173 380.058 134.389 380.128 134.564 380.261C134.74 380.393 134.867 380.581 134.923 380.794L137.445 390.479C137.509 390.711 137.519 390.955 137.474 391.191C137.429 391.428 137.331 391.651 137.188 391.844C137.044 392.036 136.858 392.194 136.644 392.304C136.43 392.414 136.194 392.474 135.953 392.479C131.61 392.479 125.327 392.479 119.865 392.583C113.493 392.748 109.419 392.434 101.957 392.583C97.4795 392.703 95.9871 388.181 97.8825 387.718C106.434 385.614 112.03 386.032 119.313 381.256C120.087 380.733 120.991 380.433 121.925 380.391Z" fill="#263238"/>
<path d="M120.895 381.928C119.134 382.331 116 382.853 114.746 381.809C114.566 381.659 114.423 381.469 114.33 381.254C114.236 381.038 114.195 380.804 114.209 380.57C114.213 380.425 114.254 380.284 114.327 380.159C114.4 380.033 114.503 379.929 114.627 379.854C115.94 379.063 120.447 381.197 120.955 381.436C121.004 381.46 121.045 381.498 121.072 381.546C121.098 381.594 121.11 381.65 121.104 381.704C121.101 381.76 121.078 381.813 121.04 381.854C121.002 381.895 120.951 381.921 120.895 381.928ZM114.926 380.271H114.836C114.788 380.302 114.748 380.344 114.72 380.393C114.691 380.443 114.675 380.498 114.672 380.555C114.661 380.713 114.688 380.871 114.75 381.016C114.813 381.161 114.909 381.29 115.03 381.391C115.717 381.973 117.537 382.018 119.955 381.555C118.164 380.809 115.761 379.973 114.94 380.301L114.926 380.271Z" fill="#80BCFF"/>
<path d="M120.895 381.928C120.865 381.942 120.832 381.95 120.798 381.95C120.765 381.95 120.732 381.942 120.701 381.928C119.343 381.376 116.627 379.077 116.791 377.824C116.791 377.54 117.015 377.167 117.732 377.078C117.995 377.034 118.264 377.048 118.522 377.117C118.779 377.187 119.018 377.311 119.224 377.481C120.716 378.585 121.075 381.54 121.089 381.659C121.095 381.705 121.089 381.751 121.07 381.793C121.052 381.835 121.022 381.871 120.985 381.898L120.895 381.928ZM117.538 377.645C117.479 377.662 117.426 377.694 117.384 377.739C117.342 377.784 117.312 377.839 117.299 377.898C117.209 378.645 119.06 380.45 120.448 381.226C120.3 379.987 119.78 378.821 118.955 377.884C118.649 377.649 118.264 377.542 117.881 377.585L117.538 377.645Z" fill="#80BCFF"/>
<path d="M144.027 142.715C149.802 167.817 139.878 365.183 139.878 365.183H120.686L112.478 200.694L82.2422 365.183L61.7369 363.691C75.1683 236.272 87.0029 160.205 87.0029 160.205V150.595L144.027 142.715Z" fill="#263238"/>
<path opacity="0.5" d="M61.7369 363.691L82.2571 365.183L106.046 235.705L112.478 200.709L120.686 365.183H139.878C139.878 365.183 149.817 167.817 144.027 142.73L86.973 150.595V160.205C86.973 160.205 75.1534 236.272 61.7369 363.691Z" fill="white"/>
<path d="M144.668 119.732C144.668 121.359 144.668 122.941 144.668 124.478C144.668 125.299 144.668 126.105 144.668 126.896C144.668 128.597 144.668 130.254 144.668 131.835C144.668 132.641 144.668 133.432 144.668 134.208C144.862 143.506 145.206 150.311 144.997 153.251L87.4507 151.117C86.2966 144.351 85.421 137.949 84.8241 131.91C84.7495 131.179 84.6748 130.418 84.6151 129.731C84.4659 128.239 84.3465 126.746 84.2271 125.254C84.2271 124.493 84.1227 123.762 84.063 123.001C83.9734 121.508 83.8839 120.016 83.8093 118.643C83.8093 117.852 83.7347 117.15 83.7197 116.315C82.2274 78.0949 90.6294 58.2314 90.6294 58.2314C95.1335 57.2428 99.6938 56.5301 104.285 56.0973C105.255 55.9928 106.24 55.9331 107.269 55.8734C115.434 55.7078 123.6 56.0117 131.729 56.7838C133.222 56.9181 134.834 57.0972 136.356 57.2912C144.101 58.2911 150.936 59.9476 150.936 59.9476C148.269 71.6563 146.488 83.5494 145.609 95.5259C144.997 103.182 144.713 110.45 144.624 117.255C144.624 117.867 144.624 118.479 144.624 119.076L144.668 119.732Z" fill="#263238"/>
<g opacity="0.3">
<path d="M144.699 117.255C144.699 117.867 144.699 118.479 144.699 119.076V119.732L138.819 127.284L127.536 111.509L117.343 124.941L107.3 111.509L98.4498 123.448L89.4955 111.435L83.8394 118.643C83.8394 117.852 83.7648 117.15 83.7499 116.315L89.3463 109.017L98.3006 120.956L107.15 109.017L117.209 122.448L127.447 109.017L138.744 124.806L144.699 117.255Z" fill="white"/>
<path d="M144.653 126.896L138.579 134.716L127.297 118.956L117.089 132.388L107.06 118.956L98.1957 130.895L89.2415 118.867L84.3763 125.194C84.3763 124.433 84.2719 123.702 84.2122 122.941L89.2415 116.404L98.1957 128.343L107.06 116.404L117.119 129.836L127.342 116.404L138.639 132.194L144.609 124.448C144.639 125.299 144.639 126.105 144.653 126.896Z" fill="white"/>
<path d="M144.758 134.208L138.58 142.163L127.297 126.388L117.089 139.745L107.061 126.314L98.196 138.327L89.2417 126.299L84.9735 131.85C84.8989 131.119 84.8243 130.358 84.7646 129.672L89.2417 123.836L98.196 135.775L107.061 123.836L117.119 137.268L127.342 123.836L138.639 139.611L144.728 131.791C144.738 132.626 144.748 133.432 144.758 134.208Z" fill="white"/>
</g>
<path d="M128.253 28.578C126.581 36.5921 124.775 51.2024 130.014 56.1571C130.014 56.1571 115.09 64.0816 111.389 63.3355C108.807 62.8131 106.21 57.6196 106.21 57.6196C114.806 54.9781 114.717 48.4415 113.374 42.3676L128.253 28.578Z" fill="#FBC6BF"/>
<path opacity="0.2" d="M122.193 34.2041L113.373 42.3674C113.711 43.789 113.926 45.2369 114.015 46.6953C117.283 46.0088 121.85 42.0242 122.268 38.4723C122.49 37.0559 122.465 35.6118 122.193 34.2041Z" fill="black"/>
<path d="M111.314 63.3503C111.314 63.3503 113.955 66.7529 117.06 70.1555C121.88 68.0363 133.207 62.2907 132.998 56.4107C132.431 54.6646 128.028 53.3364 128.028 53.3364C128.028 53.3364 122.82 59.4402 111.314 63.3503Z" fill="#80BCFF"/>
<path d="M111.314 63.3503C108.901 65.077 106.75 67.1428 104.927 69.484C101.584 67.0514 103.927 56.2466 105.27 55.1124C107.125 54.2089 109.178 53.788 111.239 53.8886C110.477 55.3516 110.086 56.9792 110.099 58.6288C110.112 60.2783 110.529 61.8995 111.314 63.3503Z" fill="#80BCFF"/>
<g opacity="0.5">
<path d="M111.314 63.3504C111.314 63.3504 113.956 66.753 117.06 70.1556C121.88 68.0364 133.208 62.2908 132.999 56.4108C132.431 54.6648 128.029 53.3365 128.029 53.3365C128.029 53.3365 122.821 59.4404 111.314 63.3504Z" fill="white"/>
<path d="M111.315 63.3505C108.901 65.0773 106.75 67.1431 104.927 69.4842C101.584 67.0516 103.927 56.2468 105.27 55.1126C107.126 54.2091 109.179 53.7882 111.24 53.8889C110.478 55.3519 110.086 56.9795 110.099 58.629C110.112 60.2785 110.529 61.8997 111.315 63.3505Z" fill="white"/>
</g>
<path d="M132.998 56.4554C131.151 70.5377 130.542 84.7548 131.177 98.9434C132.058 118.195 135.654 140.208 145.907 156.355C145.907 156.355 149.429 170.966 145.4 182.517C145.4 182.517 149.549 181.606 150.713 179.532C151.877 177.457 145.37 148.55 146.235 127.627C147.101 106.704 153.697 60.0222 153.697 60.0222C149.172 58.5473 144.506 57.547 139.773 57.0375C137.774 56.7987 135.475 56.5599 132.998 56.4554Z" fill="#263238"/>
<path opacity="0.7" d="M132.998 56.4554C131.151 70.5377 130.542 84.7548 131.177 98.9434C132.058 118.195 135.654 140.208 145.907 156.355C145.907 156.355 149.429 170.966 145.4 182.517C145.4 182.517 149.549 181.606 150.713 179.532C151.877 177.457 145.37 148.55 146.235 127.627C146.564 119.822 147.728 108.42 148.996 97.1824C149.474 93.0634 149.966 88.9594 150.489 85.0643C152.235 71.215 153.802 60.0371 153.802 60.0371C149.277 58.5622 144.61 57.5619 139.878 57.0524C137.774 56.7987 135.475 56.5599 132.998 56.4554Z" fill="white"/>
<path opacity="0.2" d="M132.998 56.4554C131.151 70.5377 130.542 84.7548 131.177 98.9434L143.803 70.5883L136.072 68.4989L144.743 65.2754L139.818 57.0524C137.774 56.7987 135.475 56.5599 132.998 56.4554Z" fill="black"/>
<path d="M75.7059 173.413L77.452 175.219C79.7992 150.754 83.4859 126.437 88.4956 102.376C88.8986 100.376 89.3164 98.4659 89.7044 96.6452C97.3753 61.8429 103.942 56.351 104.36 56.0973L98.9721 56.933L89.197 58.4254C81.2128 87.9297 75.7059 173.413 75.7059 173.413Z" fill="#263238"/>
<path opacity="0.7" d="M75.7059 173.413L77.452 175.219C79.7992 150.754 83.4859 126.437 88.4956 102.376C88.8986 100.376 89.3164 98.4659 89.7044 96.6452C97.3753 61.8429 103.942 56.351 104.36 56.0973L98.9721 56.933L89.197 58.4254C81.2128 87.9297 75.7059 173.413 75.7059 173.413Z" fill="white"/>
<path opacity="0.2" d="M96.7331 67.4244L90.2711 70.0361C90.2711 70.0361 88.7787 87.4671 89.704 96.6452C97.3748 61.8429 103.941 56.351 104.359 56.0973L98.9717 56.933C95.7245 59.0349 92.8497 61.6626 90.4651 64.7083L96.7331 67.4244Z" fill="black"/>
<path d="M139.549 151.371L132.401 159.624L145.683 163.384C145.683 163.384 150.16 155.027 145.982 152.162L139.549 151.371Z" fill="#FBC6BF"/>
<path d="M131.953 168.548L143.072 171.145L145.683 163.384L132.416 159.624L131.953 168.548Z" fill="#FBC6BF"/>
<path opacity="0.1" d="M147.668 85.1091C147.305 89.1927 147.762 93.3076 149.011 97.2123C149.489 93.0933 149.981 88.9893 150.504 85.0942C149.569 84.8911 148.601 84.8962 147.668 85.1091Z" fill="black"/>
<path d="M147.34 140.491L136.908 154.788L143.982 159.579L153.727 146.715L147.34 140.491Z" fill="#FBC6BF"/>
<path d="M153.772 60.0671C159.861 61.8431 179.859 102.66 179.142 113.793C178.426 124.926 152.847 154.952 152.847 154.952L142.878 146.461C142.878 146.461 162.756 116.897 164.159 112.36C165.562 107.823 147.668 85.1092 147.668 85.1092C146.829 80.4615 146.754 75.7082 147.444 71.0361C148.563 62.9624 153.772 60.0671 153.772 60.0671Z" fill="#263238"/>
<path opacity="0.7" d="M153.772 60.0671C159.861 61.8431 179.859 102.66 179.142 113.793C178.426 124.926 152.847 154.952 152.847 154.952L142.878 146.461C142.878 146.461 162.756 116.897 164.159 112.36C165.562 107.823 147.668 85.1092 147.668 85.1092C146.829 80.4615 146.754 75.7082 147.444 71.0361C148.563 62.9624 153.772 60.0671 153.772 60.0671Z" fill="white"/>
<path opacity="0.2" d="M106.046 235.705L112.478 200.709L111.239 182.188C111.239 182.188 102.42 214.304 106.046 235.705Z" fill="black"/>
<path d="M105.061 8.22185C102.404 11.3558 102.598 16.1762 102.479 19.2505C102.359 22.3248 101.822 26.3393 105.762 22.101C109.702 17.8626 113.776 0.446568 105.061 8.22185Z" fill="#80BCFF"/>
<path d="M129.715 22.459C128.387 32.7266 129.715 34.4727 124.178 39.3677C115.791 46.74 102.867 47.4414 101.703 36.8605C100.659 27.354 100.823 10.2365 111.21 6.90846C113.509 6.16765 115.959 6.02283 118.33 6.48757C120.7 6.95231 122.914 8.01136 124.763 9.5655C126.613 11.1196 128.037 13.118 128.903 15.3731C129.77 17.6283 130.049 20.0664 129.715 22.459Z" fill="#FBC6BF"/>
<path d="M128.193 29.3688C122.775 29.1897 123.536 27.0258 123.85 26.5184C125.253 24.3096 123.701 21.0413 122.029 16.8179C120.358 12.5945 128.819 7.72933 134.968 9.55003C140.639 11.2215 137.236 29.6673 128.193 29.3688Z" fill="#80BCFF"/>
<path d="M105.315 32.4434C105.315 32.4434 109.046 33.503 116.463 31.2495C115.567 33.5627 113.806 35.5177 109.598 35.7266C105.389 35.9356 105.315 32.4434 105.315 32.4434Z" fill="white"/>
<path d="M133.969 29.5928C132.935 31.759 131.115 33.4504 128.88 34.3236C126.044 35.3384 124.701 32.5328 125.537 29.4734C126.298 26.7274 128.7 22.892 131.506 23.2054C134.312 23.5188 135.312 26.9065 133.969 29.5928Z" fill="#FBC6BF"/>
<path d="M108.046 22.3398C107.153 24.3708 105.977 26.2651 104.553 27.9661C105.002 28.3211 105.523 28.5743 106.08 28.7082C106.636 28.8422 107.215 28.8538 107.777 28.7421L108.046 22.3398Z" fill="#E39489"/>
<path d="M135.133 5.10295C132.984 1.64064 114.762 -1.25456 107.524 1.22278C106.846 1.37749 106.211 1.68102 105.665 2.11139C105.119 2.54176 104.676 3.08818 104.367 3.71107C104.059 4.33395 103.893 5.01768 103.881 5.71271C103.869 6.40774 104.013 7.09667 104.3 7.72955C107.747 14.5199 113.478 10.8038 113.478 10.8038C114.396 10.2086 115.423 9.80012 116.499 9.60174C117.575 9.40335 118.679 9.41896 119.749 9.64764C120.819 9.87633 121.833 10.3136 122.734 10.9345C123.635 11.5554 124.405 12.3477 124.999 13.2663L135.625 10.7143C136.02 9.8128 136.183 8.82628 136.097 7.84564C136.01 6.865 135.679 5.92179 135.133 5.10295Z" fill="#80BCFF"/>
<path d="M116.926 21.9367C116.926 22.8023 116.373 23.4291 115.806 23.4291C115.239 23.4291 114.821 22.668 114.866 21.8024C114.911 20.9369 115.403 20.3101 115.97 20.3101C116.538 20.3101 116.97 21.0712 116.926 21.9367Z" fill="#263238"/>
<path d="M107.12 21.31C107.12 22.1756 106.583 22.8024 106.016 22.8024C105.449 22.8024 105.031 22.0413 105.075 21.1757C105.12 20.3101 105.613 19.6833 106.18 19.6833C106.747 19.6833 107.165 20.4445 107.12 21.31Z" fill="#263238"/>
<path d="M120.104 18.9672C120.013 18.9698 119.922 18.9493 119.841 18.9075C119.761 18.8658 119.692 18.8041 119.641 18.7284C119.3 18.1859 118.836 17.7315 118.286 17.4022C117.736 17.0729 117.116 16.8779 116.477 16.833C116.341 16.8331 116.211 16.7801 116.113 16.6854C116.015 16.5906 115.959 16.4616 115.955 16.3256C115.955 16.1911 116.008 16.062 116.103 15.9668C116.199 15.8717 116.328 15.8182 116.462 15.8182C117.274 15.8575 118.065 16.0924 118.766 16.503C119.468 16.9135 120.06 17.4876 120.492 18.1762C120.563 18.2883 120.588 18.4232 120.563 18.5534C120.538 18.6837 120.465 18.7996 120.357 18.8776C120.279 18.9229 120.193 18.9533 120.104 18.9672Z" fill="#263238"/>
<path d="M103.076 17.6537C102.976 17.6573 102.878 17.6313 102.792 17.5791C102.733 17.548 102.681 17.5052 102.639 17.4533C102.597 17.4015 102.566 17.3416 102.548 17.2774C102.53 17.2132 102.525 17.146 102.534 17.0799C102.542 17.0137 102.564 16.95 102.598 16.8926C102.971 16.1784 103.513 15.5658 104.176 15.1081C104.839 14.6505 105.604 14.3614 106.404 14.266C106.538 14.2561 106.671 14.3001 106.774 14.3883C106.876 14.4764 106.939 14.6015 106.949 14.7361C106.959 14.8707 106.915 15.0037 106.826 15.1058C106.738 15.208 106.613 15.271 106.479 15.2808C105.845 15.3625 105.242 15.5984 104.722 15.968C104.201 16.3375 103.78 16.8293 103.494 17.4C103.452 17.475 103.392 17.5379 103.319 17.5824C103.245 17.6269 103.162 17.6515 103.076 17.6537Z" fill="#263238"/>
</svg>
