<svg width="845" height="526" viewBox="0 0 845 526" fill="none" xmlns="http://www.w3.org/2000/svg">
<g style="mix-blend-mode:luminosity">
<path d="M836.098 166.304C828.325 163.139 824.772 165.782 821.952 163.139C819.131 160.497 829.725 153.788 808.516 147.031C808.516 147.031 807.095 132.489 778.113 131.967C749.131 131.445 756.904 146.509 749.131 150.148C741.358 153.788 739.226 148.075 731.453 151.73C723.68 155.386 727.146 162.633 720.859 163.677C715.045 164.627 707.488 159.975 700.296 161.905C697.897 156.024 694.573 150.368 690.391 145.053C664.144 111.934 606.912 96.6642 562.104 87.344C419.498 57.7063 385.004 130.479 296.615 170.561C208.227 210.642 104.335 173.725 53.8642 202.509C3.39328 231.292 -13.4447 302.799 11.1878 335.775C35.8204 368.752 90.2962 379.496 98.7152 395.304C107.134 411.112 104.507 416.286 104.507 416.286H765.538C770.706 416.286 784.357 395.953 787.07 391.997C802.314 369.511 804.166 347.2 777.402 329.921C751.564 313.242 706.885 302.751 703.741 271.753C700.598 240.754 711.407 205.515 704.107 174.073H841.696C841.696 174.073 843.871 169.421 836.098 166.304ZM292.094 346.551H113.228C113.228 346.551 118.18 343.956 122.422 341.804C126.664 339.652 133.726 341.804 137.257 341.804C140.789 341.804 140.789 338.639 148.583 335.063C156.378 331.487 164.84 337.136 171.192 336.092C177.544 335.047 174.034 327.784 181.807 324.145C189.58 320.506 191.712 326.218 199.485 322.563C207.258 318.907 199.485 303.843 228.467 304.365C257.449 304.888 258.87 319.445 258.87 319.445C280.079 326.186 269.463 332.943 272.306 335.538C275.148 338.133 278.658 335.538 286.452 338.703C294.247 341.867 292.094 346.551 292.094 346.551ZM582.193 115.162H467.407C467.407 115.162 470.572 113.58 473.306 112.171C476.041 110.763 480.563 112.171 482.824 112.171C485.084 112.171 485.106 110.162 490.08 107.836C495.054 105.51 500.523 109.165 504.614 108.5C508.705 107.836 506.423 103.168 511.418 100.826C516.413 98.4839 517.77 102.155 522.765 99.8289C527.761 97.5028 522.765 87.8187 541.369 88.151C559.972 88.4833 560.877 97.8193 560.877 97.8193C574.485 102.155 567.681 106.491 569.49 108.168C571.298 109.845 573.581 108.168 578.576 110.162C583.571 112.156 582.193 115.162 582.193 115.162Z" fill="#98A1AB"/>
<path d="M371.008 34.3506C363.214 31.1858 359.682 33.8284 356.862 31.1858C354.041 28.5433 364.635 21.8341 343.426 15.0774C343.426 15.0774 342.005 0.535431 313.023 0.0132506C284.041 -0.50893 291.814 14.5552 284.041 18.1946C276.268 21.8341 274.136 16.1217 266.363 19.777C258.59 23.4323 262.057 30.6795 255.748 31.7238C249.439 32.7682 240.912 26.9767 233.139 30.6795C225.366 34.3822 225.345 37.4362 221.813 37.4362C218.282 37.4362 211.22 35.3633 206.978 37.4362C202.736 39.5091 197.784 42.1833 197.784 42.1833H376.65C376.65 42.1833 378.781 37.5153 371.008 34.3506Z" fill="#98A1AB"/>
<g opacity="0.7">
<path d="M836.098 166.304C828.325 163.139 824.772 165.782 821.952 163.139C819.131 160.497 829.725 153.788 808.516 147.031C808.516 147.031 807.095 132.489 778.113 131.967C749.131 131.445 756.904 146.509 749.131 150.148C741.358 153.788 739.226 148.075 731.453 151.73C723.68 155.386 727.146 162.633 720.859 163.677C715.045 164.627 707.488 159.975 700.296 161.905C697.897 156.024 694.573 150.368 690.391 145.053C664.144 111.934 606.912 96.6642 562.104 87.344C419.498 57.7063 385.004 130.479 296.615 170.561C208.227 210.642 104.335 173.725 53.8642 202.509C3.39328 231.292 -13.4447 302.799 11.1878 335.775C35.8204 368.752 90.2962 379.496 98.7152 395.304C107.134 411.112 104.507 416.286 104.507 416.286H765.538C770.706 416.286 784.357 395.953 787.07 391.997C802.314 369.511 804.166 347.2 777.402 329.921C751.564 313.242 706.885 302.751 703.741 271.753C700.598 240.754 711.407 205.515 704.107 174.073H841.696C841.696 174.073 843.871 169.421 836.098 166.304ZM292.094 346.551H113.228C113.228 346.551 118.18 343.956 122.422 341.804C126.664 339.652 133.726 341.804 137.257 341.804C140.789 341.804 140.789 338.639 148.583 335.063C156.378 331.487 164.84 337.136 171.192 336.092C177.544 335.047 174.034 327.784 181.807 324.145C189.58 320.506 191.712 326.218 199.485 322.563C207.258 318.907 199.485 303.843 228.467 304.365C257.449 304.888 258.87 319.445 258.87 319.445C280.079 326.186 269.463 332.943 272.306 335.538C275.148 338.133 278.658 335.538 286.452 338.703C294.247 341.867 292.094 346.551 292.094 346.551ZM582.193 115.162H467.407C467.407 115.162 470.572 113.58 473.306 112.171C476.041 110.763 480.563 112.171 482.824 112.171C485.084 112.171 485.106 110.162 490.08 107.836C495.054 105.51 500.523 109.165 504.614 108.5C508.705 107.836 506.423 103.168 511.418 100.826C516.413 98.4839 517.77 102.155 522.765 99.8289C527.761 97.5028 522.765 87.8187 541.369 88.151C559.972 88.4833 560.877 97.8193 560.877 97.8193C574.485 102.155 567.681 106.491 569.49 108.168C571.298 109.845 573.581 108.168 578.576 110.162C583.571 112.156 582.193 115.162 582.193 115.162Z" fill="white"/>
<path d="M371.008 34.3506C363.214 31.1858 359.682 33.8284 356.862 31.1858C354.041 28.5433 364.635 21.8341 343.426 15.0774C343.426 15.0774 342.005 0.535431 313.023 0.0132506C284.041 -0.50893 291.814 14.5552 284.041 18.1946C276.268 21.8341 274.136 16.1217 266.363 19.777C258.59 23.4323 262.057 30.6795 255.748 31.7238C249.439 32.7682 240.912 26.9767 233.139 30.6795C225.366 34.3822 225.345 37.4362 221.813 37.4362C218.282 37.4362 211.22 35.3633 206.978 37.4362C202.736 39.5091 197.784 42.1833 197.784 42.1833H376.65C376.65 42.1833 378.781 37.5153 371.008 34.3506Z" fill="white"/>
</g>
<path d="M822.985 314.144L844 355.523H829.682L815.363 323.258L822.985 314.144Z" fill="white" stroke="#2E353A" stroke-width="0.887535" stroke-linecap="round" stroke-linejoin="round"/>
<path d="M834.44 416.318H645.153V345.238L820.897 325.506L834.44 352.944V416.318Z" fill="#2E353A"/>
<path d="M671.228 201.211H424.343V416.318H671.228V201.211Z" fill="#2E353A"/>
<path d="M409.141 218.601L398.634 208.6L549.164 123.2L696.937 207.05L686.451 217.05L549.164 139.15L409.141 218.601Z" fill="#2E353A"/>
<path d="M626.054 201.211H379.169V416.318H626.054V201.211Z" fill="white" stroke="#2E353A" stroke-width="0.887535" stroke-linecap="round" stroke-linejoin="round"/>
<path d="M502.612 131.175L379.169 201.21H626.054L502.612 131.175Z" fill="white" stroke="#2E353A" stroke-width="0.887535" stroke-linejoin="round"/>
<g style="mix-blend-mode:multiply">
<path d="M502.612 131.175L379.169 201.21V217.161L407.29 201.21L502.612 147.125L597.955 201.21L626.054 217.161V201.21L502.612 131.175Z" fill="#80BBFF"/>
</g>
<path d="M815.363 345.238H626.054V416.318H815.363V345.238Z" fill="white" stroke="#2E353A" stroke-width="0.887535" stroke-linecap="round" stroke-linejoin="round"/>
<path d="M796.286 345.238H645.153V416.318H796.286V345.238Z" fill="#80BBFF" stroke="#2E353A" stroke-width="0.887535" stroke-linecap="round" stroke-linejoin="round"/>
<g style="mix-blend-mode:multiply">
<path d="M815.363 345.238H626.054V360.476H815.363V345.238Z" fill="#80BBFF"/>
</g>
<path d="M645.153 366.046H796.264" stroke="#2E353A" stroke-width="0.887535" stroke-linecap="round" stroke-linejoin="round"/>
<path d="M645.153 376.568H796.264" stroke="#2E353A" stroke-width="0.887535" stroke-linecap="round" stroke-linejoin="round"/>
<path d="M645.153 387.092H796.264" stroke="#2E353A" stroke-width="0.887535" stroke-linecap="round" stroke-linejoin="round"/>
<path d="M645.153 397.614H796.264" stroke="#2E353A" stroke-width="0.887535" stroke-linecap="round" stroke-linejoin="round"/>
<path d="M645.153 408.137H796.264" stroke="#2E353A" stroke-width="0.887535" stroke-linecap="round" stroke-linejoin="round"/>
<path d="M449.169 336.82H399.538V416.318H449.169V336.82Z" fill="#2E353A"/>
<path d="M524.876 336.82H475.244V391.997H524.876V336.82Z" fill="white" stroke="#2E353A" stroke-width="0.887535" stroke-linecap="round" stroke-linejoin="round"/>
<path d="M524.876 362.074H475.244V366.758H524.876V362.074Z" fill="#2E353A"/>
<path d="M503.258 336.82H496.884V391.997H503.258V336.82Z" fill="#2E353A"/>
<path d="M615.869 336.82H566.238V391.997H615.869V336.82Z" fill="white" stroke="#2E353A" stroke-width="0.887535" stroke-linecap="round" stroke-linejoin="round"/>
<path d="M615.869 362.074H566.238V366.758H615.869V362.074Z" fill="#2E353A"/>
<path d="M594.251 336.82H587.878V391.997H594.251V336.82Z" fill="#2E353A"/>
<path d="M551.92 336.82H542.402V416.318H551.92V336.82Z" fill="white" stroke="#2E353A" stroke-width="0.887535" stroke-linecap="round" stroke-linejoin="round"/>
<path d="M468.72 336.82H459.203V416.318H468.72V336.82Z" fill="white" stroke="#2E353A" stroke-width="0.887535" stroke-linecap="round" stroke-linejoin="round"/>
<path d="M615.869 340.096H390.624V350.381H615.869V340.096Z" fill="#2E353A"/>
<path d="M615.869 334.952H390.624V345.238H615.869V334.952Z" fill="#80BBFF" stroke="#2E353A" stroke-width="0.887535" stroke-linecap="round" stroke-linejoin="round"/>
<path d="M362.589 218.601L352.081 208.6L502.611 123.2L650.385 207.05L639.899 217.05L502.611 139.15L362.589 218.601Z" fill="white" stroke="#2E353A" stroke-width="0.887535" stroke-linejoin="round"/>
<path d="M815.363 355.523H607.235L626.334 314.144H822.985L815.363 355.523Z" fill="#2E353A"/>
<path d="M650.385 207.05H693.019L549.164 123.2H502.612L650.385 207.05Z" fill="#2E353A"/>
<path d="M639.899 217.051H686.451L696.937 207.05H650.385L639.899 217.051Z" fill="#2E353A"/>
<path d="M426.259 233.017H399.538V264.822H426.259V233.017Z" fill="white" stroke="#2E353A" stroke-width="0.887535" stroke-linecap="round" stroke-linejoin="round"/>
<path d="M426.259 248.92H399.538V264.823H426.259V248.92Z" fill="#2E353A"/>
<path d="M426.259 247.147H399.538V250.692H426.259V247.147Z" fill="white" stroke="#2E353A" stroke-width="0.887535" stroke-linecap="round" stroke-linejoin="round"/>
<path d="M426.259 278.842H399.538V310.647H426.259V278.842Z" fill="white" stroke="#2E353A" stroke-width="0.887535" stroke-linecap="round" stroke-linejoin="round"/>
<path d="M426.259 294.586H399.538V310.631H426.259V294.586Z" fill="#2E353A"/>
<path d="M606.955 233.017H580.234V264.822H606.955V233.017Z" fill="white" stroke="#2E353A" stroke-width="0.887535" stroke-linecap="round" stroke-linejoin="round"/>
<path d="M606.955 248.92H580.234V264.823H606.955V248.92Z" fill="#2E353A"/>
<path d="M606.955 278.842H580.234V310.647H606.955V278.842Z" fill="white" stroke="#2E353A" stroke-width="0.887535" stroke-linecap="round" stroke-linejoin="round"/>
<path d="M606.955 292.814H580.234V310.631H606.955V292.814Z" fill="#2E353A"/>
<path d="M513.421 233.017H486.7V264.822H513.421V233.017Z" fill="white" stroke="#2E353A" stroke-width="0.887535" stroke-linecap="round" stroke-linejoin="round"/>
<path d="M513.421 248.92H486.7V264.823H513.421V248.92Z" fill="#2E353A"/>
<path d="M513.421 278.842H486.7V310.647H513.421V278.842Z" fill="white" stroke="#2E353A" stroke-width="0.887535" stroke-linecap="round" stroke-linejoin="round"/>
<path d="M513.421 292.814H486.7V310.631H513.421V292.814Z" fill="#2E353A"/>
<path d="M513.421 247.147H486.7V250.692H513.421V247.147Z" fill="white" stroke="#2E353A" stroke-width="0.887535" stroke-linecap="round" stroke-linejoin="round"/>
<path d="M606.955 247.147H580.234V250.692H606.955V247.147Z" fill="white" stroke="#2E353A" stroke-width="0.887535" stroke-linecap="round" stroke-linejoin="round"/>
<path d="M426.259 291.042H399.538V294.586H426.259V291.042Z" fill="white" stroke="#2E353A" stroke-width="0.887535" stroke-linecap="round" stroke-linejoin="round"/>
<path d="M513.421 291.042H486.7V294.586H513.421V291.042Z" fill="white" stroke="#2E353A" stroke-width="0.887535" stroke-linecap="round" stroke-linejoin="round"/>
<path d="M606.955 291.042H580.234V294.586H606.955V291.042Z" fill="white" stroke="#2E353A" stroke-width="0.887535" stroke-linecap="round" stroke-linejoin="round"/>
<path d="M400.937 210.8V218.601" stroke="#2E353A" stroke-width="0.887535" stroke-linecap="round" stroke-linejoin="round"/>
<path d="M420.036 210.8V218.601" stroke="#2E353A" stroke-width="0.887535" stroke-linecap="round" stroke-linejoin="round"/>
<path d="M409.141 218.601V226.402" stroke="#2E353A" stroke-width="0.887535" stroke-linecap="round" stroke-linejoin="round"/>
<path d="M430.953 218.601V226.402" stroke="#2E353A" stroke-width="0.887535" stroke-linecap="round" stroke-linejoin="round"/>
<path d="M392.476 218.601H436.099" stroke="#2E353A" stroke-width="0.887535" stroke-linecap="round" stroke-linejoin="round"/>
<path d="M400.937 314.999V322.8" stroke="#2E353A" stroke-width="0.887535" stroke-linecap="round" stroke-linejoin="round"/>
<path d="M420.036 314.999V322.8" stroke="#2E353A" stroke-width="0.887535" stroke-linecap="round" stroke-linejoin="round"/>
<path d="M409.141 322.8V330.601" stroke="#2E353A" stroke-width="0.887535" stroke-linecap="round" stroke-linejoin="round"/>
<path d="M430.953 322.8V330.601" stroke="#2E353A" stroke-width="0.887535" stroke-linecap="round" stroke-linejoin="round"/>
<path d="M392.476 322.8H436.099" stroke="#2E353A" stroke-width="0.887535" stroke-linecap="round" stroke-linejoin="round"/>
<path d="M439.63 241.103V248.919" stroke="#2E353A" stroke-width="0.887535" stroke-linecap="round" stroke-linejoin="round"/>
<path d="M458.729 241.103V248.919" stroke="#2E353A" stroke-width="0.887535" stroke-linecap="round" stroke-linejoin="round"/>
<path d="M447.834 248.92V256.721" stroke="#2E353A" stroke-width="0.887535" stroke-linecap="round" stroke-linejoin="round"/>
<path d="M469.646 248.92V256.721" stroke="#2E353A" stroke-width="0.887535" stroke-linecap="round" stroke-linejoin="round"/>
<path d="M431.168 248.92H474.792" stroke="#2E353A" stroke-width="0.887535" stroke-linecap="round" stroke-linejoin="round"/>
<path d="M439.63 256.721H474.792" stroke="#2E353A" stroke-width="0.887535" stroke-linecap="round" stroke-linejoin="round"/>
<path d="M439.63 257.006V264.807" stroke="#2E353A" stroke-width="0.887535" stroke-linecap="round" stroke-linejoin="round"/>
<path d="M458.729 257.006V264.807" stroke="#2E353A" stroke-width="0.887535" stroke-linecap="round" stroke-linejoin="round"/>
<path d="M447.834 264.807V272.608" stroke="#2E353A" stroke-width="0.887535" stroke-linecap="round" stroke-linejoin="round"/>
<path d="M469.646 264.807V272.608" stroke="#2E353A" stroke-width="0.887535" stroke-linecap="round" stroke-linejoin="round"/>
<path d="M431.168 264.807H474.792" stroke="#2E353A" stroke-width="0.887535" stroke-linecap="round" stroke-linejoin="round"/>
<path d="M534.759 293.162V300.963" stroke="#2E353A" stroke-width="0.887535" stroke-linecap="round" stroke-linejoin="round"/>
<path d="M553.858 293.162V300.963" stroke="#2E353A" stroke-width="0.887535" stroke-linecap="round" stroke-linejoin="round"/>
<path d="M542.963 300.963V308.764" stroke="#2E353A" stroke-width="0.887535" stroke-linecap="round" stroke-linejoin="round"/>
<path d="M564.774 300.963V308.764" stroke="#2E353A" stroke-width="0.887535" stroke-linecap="round" stroke-linejoin="round"/>
<path d="M526.297 300.963H569.92" stroke="#2E353A" stroke-width="0.887535" stroke-linecap="round" stroke-linejoin="round"/>
<path d="M534.759 308.764H569.92" stroke="#2E353A" stroke-width="0.887535" stroke-linecap="round" stroke-linejoin="round"/>
<path d="M534.759 309.065V316.867" stroke="#2E353A" stroke-width="0.887535" stroke-linecap="round" stroke-linejoin="round"/>
<path d="M553.858 309.065V316.867" stroke="#2E353A" stroke-width="0.887535" stroke-linecap="round" stroke-linejoin="round"/>
<path d="M542.963 316.866V324.667" stroke="#2E353A" stroke-width="0.887535" stroke-linecap="round" stroke-linejoin="round"/>
<path d="M564.774 316.866V324.667" stroke="#2E353A" stroke-width="0.887535" stroke-linecap="round" stroke-linejoin="round"/>
<path d="M526.297 316.866H569.92" stroke="#2E353A" stroke-width="0.887535" stroke-linecap="round" stroke-linejoin="round"/>
<path d="M22.5567 438.36C64.8885 451.224 173.668 437.3 162.514 452.3C151.361 467.301 66.1588 461.668 41.9354 477.887C17.712 494.107 127.912 492.809 124.015 497.73C120.118 502.651 23.1595 506.022 29.533 512.652H682.855C683.91 507.462 676.396 501.164 664.122 496.828C566.841 493.901 237.187 483.172 271.724 472.808C312.204 460.687 444.367 448.566 468.526 439.072C492.685 429.578 385.671 428.518 367.757 424.308C361.986 422.948 361.297 421.618 363.17 420.463L366.25 420.606V419.166C371.142 417.863 376.188 416.894 381.322 416.27H366.25V413.533L364.096 414.529L360.414 416.27H359.23C360.739 412.844 361.763 409.312 362.288 405.732C363.127 399.544 351.306 413.533 351.306 413.533C351.306 413.533 352.986 408.785 351.306 405.732C349.627 402.678 344.545 409.861 344.545 409.861C344.545 409.861 350.467 392.693 344.545 381.537C338.624 370.381 331.949 409.861 331.949 409.861C331.949 409.861 331.045 394.544 323.444 394.244C317.286 393.99 321.097 404.402 322.777 408.358C321.474 406.138 319.552 404.144 317.135 402.503C311.688 398.674 317.135 411.349 317.135 411.349C317.135 411.349 314.982 407.583 300.749 405.732C286.517 403.88 306.563 413.928 306.563 413.928C300.393 412.627 294.133 411.57 287.809 410.763C284.665 410.384 284.407 410.953 285.44 411.903L283.395 412.868L276.806 416.033C278.964 411.387 280.408 406.578 281.112 401.696C282.189 393.785 267.138 411.634 267.138 411.634C267.138 411.634 269.291 405.637 267.138 401.696C264.985 397.756 258.525 406.95 258.525 406.95C258.525 406.95 266.061 385.097 258.525 370.888C250.989 356.678 242.484 406.95 242.484 406.95C242.484 406.95 241.321 387.471 231.718 387.075C223.902 386.759 228.703 399.908 230.857 404.988C229.2 402.186 226.765 399.669 223.708 397.598C216.753 392.724 223.708 408.849 223.708 408.849C223.708 408.849 220.973 404.102 202.844 401.696C184.714 399.291 210.229 412.14 210.229 412.14C202.374 410.485 194.403 409.143 186.35 408.121C174.292 406.665 195.523 416.302 195.523 416.302H35.4758C35.4758 416.302 -19.7321 425.511 22.5567 438.36ZM286.151 412.536C288.311 413.941 290.623 415.217 293.062 416.349H286.151V412.536Z" fill="#2E353A"/>
<path d="M544.857 440.274C520.397 448.598 459.655 457.332 459.655 457.332C449.987 458.298 463.079 467.396 530.215 462.886L645.11 416.317H424.946C432.31 419.102 484.761 425.527 514.605 425.527C544.448 425.527 569.317 431.935 544.857 440.274Z" fill="#2E353A"/>
<path d="M720.751 416.317H764.16C742.369 415.7 720.751 416.317 720.751 416.317Z" fill="#2E353A"/>
<path d="M792.367 418.169L689.25 467.001C702.32 466.637 715.993 466.399 729.235 466.162C786.359 465.149 765.624 446.936 769.5 440.512C773.376 434.087 805.803 435.147 808.386 424.435C809.119 421.397 802.379 419.435 792.367 418.169Z" fill="#2E353A"/>
<g opacity="0.3">
<path d="M22.5567 438.36C64.8885 451.224 173.668 437.3 162.514 452.3C151.361 467.301 66.1588 461.668 41.9354 477.887C17.712 494.107 127.912 492.809 124.015 497.73C120.118 502.651 23.1595 506.022 29.533 512.652H682.855C683.91 507.462 676.396 501.164 664.122 496.828C566.841 493.901 237.187 483.172 271.724 472.808C312.204 460.687 444.367 448.566 468.526 439.072C492.685 429.578 385.671 428.518 367.757 424.308C361.986 422.948 361.297 421.618 363.17 420.463L366.25 420.606V419.166C371.142 417.863 376.188 416.894 381.322 416.27H366.25V413.533L364.096 414.529L360.414 416.27H359.23C360.739 412.844 361.763 409.312 362.288 405.732C363.127 399.544 351.306 413.533 351.306 413.533C351.306 413.533 352.986 408.785 351.306 405.732C349.627 402.678 344.545 409.861 344.545 409.861C344.545 409.861 350.467 392.693 344.545 381.537C338.624 370.381 331.949 409.861 331.949 409.861C331.949 409.861 331.045 394.544 323.444 394.244C317.286 393.99 321.097 404.402 322.777 408.358C321.474 406.138 319.552 404.144 317.135 402.503C311.688 398.674 317.135 411.349 317.135 411.349C317.135 411.349 314.982 407.583 300.749 405.732C286.517 403.88 306.563 413.928 306.563 413.928C300.393 412.627 294.133 411.57 287.809 410.763C284.665 410.384 284.407 410.953 285.44 411.903L283.395 412.868L276.806 416.033C278.964 411.387 280.408 406.578 281.112 401.696C282.189 393.785 267.138 411.634 267.138 411.634C267.138 411.634 269.291 405.637 267.138 401.696C264.985 397.756 258.525 406.95 258.525 406.95C258.525 406.95 266.061 385.097 258.525 370.888C250.989 356.678 242.484 406.95 242.484 406.95C242.484 406.95 241.321 387.471 231.718 387.075C223.902 386.759 228.703 399.908 230.857 404.988C229.2 402.186 226.765 399.669 223.708 397.598C216.753 392.724 223.708 408.849 223.708 408.849C223.708 408.849 220.973 404.102 202.844 401.696C184.714 399.291 210.229 412.14 210.229 412.14C202.374 410.485 194.403 409.143 186.35 408.121C174.292 406.665 195.523 416.302 195.523 416.302H35.4758C35.4758 416.302 -19.7321 425.511 22.5567 438.36ZM286.151 412.536C288.311 413.941 290.623 415.217 293.062 416.349H286.151V412.536Z" fill="white"/>
<path d="M544.857 440.274C520.397 448.598 459.655 457.332 459.655 457.332C449.987 458.298 463.079 467.396 530.215 462.886L645.11 416.317H424.946C432.31 419.102 484.761 425.527 514.605 425.527C544.448 425.527 569.317 431.935 544.857 440.274Z" fill="white"/>
<path d="M720.751 416.317H764.16C742.369 415.7 720.751 416.317 720.751 416.317Z" fill="white"/>
<path d="M792.367 418.169L689.25 467.001C702.32 466.637 715.993 466.399 729.235 466.162C786.359 465.149 765.624 446.936 769.5 440.512C773.376 434.087 805.803 435.147 808.386 424.435C809.119 421.397 802.379 419.435 792.367 418.169Z" fill="white"/>
</g>
<path d="M161.029 150.18V277.813H413.663V150.18H161.029ZM184.499 165.861C183.119 165.861 181.77 165.56 180.623 164.997C179.475 164.434 178.581 163.633 178.053 162.696C177.525 161.759 177.387 160.728 177.656 159.734C177.925 158.739 178.59 157.826 179.566 157.109C180.541 156.392 181.784 155.904 183.138 155.706C184.491 155.508 185.893 155.609 187.168 155.997C188.443 156.386 189.533 157.043 190.299 157.886C191.066 158.729 191.475 159.72 191.475 160.734C191.475 162.094 190.74 163.398 189.432 164.359C188.123 165.321 186.349 165.861 184.499 165.861ZM389.956 165.861C388.577 165.861 387.228 165.56 386.08 164.997C384.933 164.434 384.039 163.633 383.511 162.696C382.983 161.759 382.845 160.728 383.114 159.734C383.383 158.739 384.048 157.826 385.023 157.109C385.999 156.392 387.242 155.904 388.595 155.706C389.949 155.508 391.351 155.609 392.626 155.997C393.901 156.386 394.99 157.043 395.757 157.886C396.523 158.729 396.933 159.72 396.933 160.734C396.927 162.093 396.19 163.394 394.883 164.355C393.576 165.315 391.805 165.857 389.956 165.861Z" fill="#80BBFF" stroke="#2E353A" stroke-miterlimit="10"/>
<path d="M396.933 160.734C396.933 161.748 396.523 162.739 395.757 163.582C394.99 164.425 393.901 165.082 392.626 165.47C391.351 165.858 389.949 165.96 388.595 165.762C387.242 165.564 385.999 165.076 385.023 164.359C384.048 163.642 383.383 162.728 383.114 161.734C382.845 160.739 382.983 159.709 383.511 158.772C384.039 157.835 384.933 157.034 386.08 156.471C387.228 155.908 388.576 155.607 389.956 155.607H184.498C185.878 155.607 187.227 155.908 188.374 156.471C189.522 157.034 190.416 157.835 190.944 158.772C191.472 159.709 191.61 160.739 191.341 161.734C191.072 162.728 190.407 163.642 189.431 164.359C188.456 165.076 187.213 165.564 185.859 165.762C184.506 165.96 183.103 165.858 181.829 165.47C180.554 165.082 179.464 164.425 178.698 163.582C177.931 162.739 177.522 161.748 177.522 160.734C177.522 159.374 178.257 158.07 179.565 157.109C180.874 156.147 182.648 155.607 184.498 155.607H168.306V270.771H403.995V155.607H389.956C391.806 155.607 393.581 156.147 394.889 157.109C396.198 158.07 396.933 159.374 396.933 160.734Z" fill="#2E353A"/>
<path d="M184.498 100.81C182.494 100.813 180.535 101.252 178.87 102.073C177.205 102.894 175.908 104.059 175.144 105.421C174.38 106.783 174.182 108.282 174.576 109.726C174.97 111.171 175.937 112.497 177.356 113.538C178.776 114.579 180.583 115.287 182.549 115.573C184.516 115.86 186.554 115.711 188.406 115.147C190.258 114.582 191.84 113.627 192.954 112.402C194.067 111.176 194.661 109.736 194.661 108.263C194.661 107.282 194.398 106.312 193.887 105.407C193.376 104.501 192.627 103.679 191.683 102.987C190.739 102.295 189.619 101.746 188.386 101.372C187.153 100.999 185.832 100.808 184.498 100.81ZM184.498 113.231C183.162 113.228 181.857 112.934 180.748 112.386C179.639 111.838 178.776 111.061 178.267 110.153C177.759 109.245 177.628 108.246 177.891 107.284C178.155 106.321 178.8 105.437 179.747 104.744C180.693 104.05 181.898 103.579 183.209 103.388C184.52 103.198 185.878 103.297 187.112 103.674C188.346 104.05 189.401 104.687 190.143 105.504C190.885 106.32 191.281 107.281 191.281 108.263C191.287 108.92 191.115 109.571 190.777 110.18C190.439 110.788 189.94 111.341 189.31 111.808C188.679 112.274 187.93 112.644 187.104 112.896C186.278 113.149 185.393 113.279 184.498 113.279V113.231Z" fill="white" stroke="#2E353A" stroke-width="0.916642" stroke-linecap="round" stroke-linejoin="round"/>
<path d="M184.498 118.706C182.487 118.706 180.521 119.145 178.85 119.966C177.178 120.787 175.875 121.955 175.107 123.32C174.338 124.686 174.138 126.189 174.532 127.638C174.926 129.087 175.896 130.418 177.319 131.462C178.743 132.506 180.556 133.216 182.529 133.502C184.501 133.788 186.546 133.638 188.402 133.071C190.259 132.503 191.845 131.543 192.959 130.313C194.073 129.082 194.665 127.637 194.661 126.159C194.661 125.179 194.398 124.209 193.887 123.303C193.376 122.398 192.627 121.576 191.683 120.883C190.739 120.191 189.619 119.642 188.386 119.269C187.153 118.895 185.832 118.704 184.498 118.706ZM184.498 131.143C183.157 131.143 181.845 130.851 180.73 130.303C179.615 129.756 178.745 128.977 178.232 128.066C177.718 127.156 177.584 126.153 177.846 125.187C178.108 124.22 178.754 123.332 179.702 122.634C180.651 121.937 181.859 121.463 183.175 121.27C184.491 121.078 185.854 121.177 187.094 121.554C188.333 121.931 189.392 122.57 190.138 123.39C190.883 124.209 191.281 125.173 191.281 126.159C191.281 127.481 190.566 128.749 189.294 129.684C188.022 130.618 186.297 131.143 184.498 131.143Z" fill="white" stroke="#2E353A" stroke-width="0.916642" stroke-linecap="round" stroke-linejoin="round"/>
<path d="M184.498 134.482C182.494 134.485 180.535 134.925 178.87 135.746C177.205 136.567 175.908 137.732 175.144 139.094C174.38 140.456 174.182 141.954 174.576 143.399C174.97 144.843 175.937 146.17 177.356 147.21C178.776 148.251 180.583 148.959 182.549 149.246C184.516 149.532 186.554 149.384 188.406 148.819C190.258 148.254 191.84 147.299 192.954 146.074C194.067 144.849 194.661 143.408 194.661 141.935C194.661 140.955 194.398 139.984 193.887 139.079C193.376 138.174 192.627 137.352 191.683 136.659C190.739 135.967 189.619 135.418 188.386 135.045C187.153 134.671 185.832 134.48 184.498 134.482ZM184.498 146.904C183.162 146.9 181.857 146.606 180.748 146.058C179.639 145.511 178.776 144.734 178.267 143.825C177.759 142.917 177.628 141.919 177.891 140.956C178.155 139.993 178.8 139.109 179.747 138.416C180.693 137.723 181.898 137.251 183.209 137.061C184.52 136.87 185.878 136.969 187.112 137.346C188.346 137.723 189.401 138.359 190.143 139.176C190.885 139.993 191.281 140.953 191.281 141.935C191.275 143.254 190.558 144.518 189.287 145.449C188.015 146.381 186.294 146.904 184.498 146.904Z" fill="white" stroke="#2E353A" stroke-width="0.916642" stroke-linecap="round" stroke-linejoin="round"/>
<path d="M184.498 125.352C184.024 125.352 183.569 125.214 183.234 124.968C182.899 124.721 182.711 124.387 182.711 124.039V111.744C182.711 111.396 182.899 111.062 183.234 110.815C183.569 110.569 184.024 110.431 184.498 110.431C184.974 110.431 185.431 110.568 185.769 110.814C186.108 111.06 186.301 111.394 186.307 111.744V124.039C186.301 124.389 186.108 124.723 185.769 124.969C185.431 125.215 184.974 125.352 184.498 125.352Z" fill="white" stroke="#2E353A" stroke-width="0.916642" stroke-linecap="round" stroke-linejoin="round"/>
<path d="M184.498 142.268C184.024 142.268 183.569 142.13 183.234 141.884C182.899 141.637 182.711 141.303 182.711 140.955V128.66C182.711 128.312 182.899 127.978 183.234 127.731C183.569 127.485 184.024 127.347 184.498 127.347C184.974 127.347 185.431 127.485 185.769 127.73C186.108 127.976 186.301 128.31 186.307 128.66V140.955C186.301 141.305 186.108 141.639 185.769 141.885C185.431 142.131 184.974 142.268 184.498 142.268Z" fill="white" stroke="#2E353A" stroke-width="0.916642" stroke-linecap="round" stroke-linejoin="round"/>
<path d="M184.498 159.215C184.024 159.215 183.569 159.076 183.234 158.83C182.899 158.584 182.711 158.25 182.711 157.901V145.606C182.711 145.434 182.757 145.263 182.847 145.104C182.937 144.944 183.068 144.8 183.234 144.678C183.4 144.556 183.597 144.459 183.814 144.393C184.031 144.327 184.263 144.293 184.498 144.293C184.974 144.293 185.431 144.431 185.769 144.677C186.108 144.923 186.301 145.257 186.307 145.606V157.901C186.301 158.251 186.108 158.585 185.769 158.831C185.431 159.077 184.974 159.215 184.498 159.215Z" fill="white" stroke="#2E353A" stroke-width="0.916642" stroke-linecap="round" stroke-linejoin="round"/>
<path d="M389.956 100.81C387.951 100.813 385.992 101.252 384.328 102.073C382.663 102.894 381.366 104.059 380.602 105.421C379.837 106.783 379.64 108.282 380.033 109.726C380.427 111.171 381.395 112.497 382.814 113.538C384.233 114.579 386.04 115.287 388.007 115.573C389.974 115.86 392.012 115.711 393.863 115.147C395.715 114.582 397.298 113.627 398.411 112.402C399.525 111.176 400.119 109.736 400.119 108.263C400.119 107.282 399.856 106.312 399.345 105.407C398.834 104.501 398.085 103.679 397.141 102.987C396.197 102.295 395.077 101.746 393.844 101.372C392.611 100.999 391.29 100.808 389.956 100.81ZM389.956 113.231C388.62 113.228 387.315 112.934 386.206 112.386C385.097 111.838 384.233 111.061 383.725 110.153C383.217 109.245 383.086 108.246 383.349 107.284C383.612 106.321 384.258 105.437 385.204 104.744C386.151 104.05 387.355 103.579 388.666 103.388C389.977 103.198 391.336 103.297 392.57 103.674C393.804 104.05 394.859 104.687 395.601 105.504C396.343 106.32 396.739 107.281 396.739 108.263C396.744 108.92 396.573 109.571 396.235 110.18C395.896 110.788 395.398 111.341 394.767 111.808C394.137 112.274 393.387 112.644 392.562 112.896C391.736 113.149 390.85 113.279 389.956 113.279V113.231Z" fill="white" stroke="#2E353A" stroke-width="0.916642" stroke-linecap="round" stroke-linejoin="round"/>
<path d="M389.956 118.706C387.945 118.706 385.979 119.145 384.308 119.966C382.636 120.787 381.333 121.955 380.565 123.32C379.796 124.686 379.596 126.189 379.99 127.638C380.384 129.087 381.354 130.418 382.777 131.462C384.201 132.506 386.014 133.216 387.987 133.502C389.959 133.788 392.004 133.638 393.86 133.071C395.717 132.503 397.303 131.543 398.417 130.313C399.531 129.082 400.123 127.637 400.119 126.159C400.119 125.179 399.856 124.209 399.345 123.303C398.834 122.398 398.085 121.576 397.141 120.883C396.197 120.191 395.077 119.642 393.844 119.269C392.611 118.895 391.29 118.704 389.956 118.706ZM389.956 131.143C388.615 131.143 387.303 130.851 386.188 130.303C385.073 129.756 384.203 128.977 383.69 128.066C383.176 127.156 383.042 126.153 383.304 125.187C383.566 124.22 384.212 123.332 385.16 122.634C386.109 121.937 387.317 121.463 388.633 121.27C389.949 121.078 391.312 121.177 392.552 121.554C393.791 121.931 394.85 122.57 395.596 123.39C396.341 124.209 396.739 125.173 396.739 126.159C396.739 126.814 396.563 127.462 396.222 128.066C395.882 128.671 395.382 129.221 394.752 129.684C394.122 130.146 393.375 130.514 392.552 130.764C391.729 131.015 390.847 131.143 389.956 131.143Z" fill="white" stroke="#2E353A" stroke-width="0.916642" stroke-linecap="round" stroke-linejoin="round"/>
<path d="M389.956 134.482C387.951 134.485 385.992 134.925 384.328 135.746C382.663 136.567 381.366 137.732 380.602 139.094C379.837 140.456 379.64 141.954 380.033 143.399C380.427 144.843 381.395 146.17 382.814 147.21C384.233 148.251 386.04 148.959 388.007 149.246C389.974 149.532 392.012 149.384 393.863 148.819C395.715 148.254 397.298 147.299 398.411 146.074C399.525 144.849 400.119 143.408 400.119 141.935C400.119 140.955 399.856 139.984 399.345 139.079C398.834 138.174 398.085 137.352 397.141 136.659C396.197 135.967 395.077 135.418 393.844 135.045C392.611 134.671 391.29 134.48 389.956 134.482ZM389.956 146.904C388.62 146.9 387.315 146.606 386.206 146.058C385.097 145.511 384.233 144.734 383.725 143.825C383.217 142.917 383.086 141.919 383.349 140.956C383.612 139.993 384.258 139.109 385.204 138.416C386.151 137.723 387.355 137.251 388.666 137.061C389.977 136.87 391.336 136.969 392.57 137.346C393.804 137.723 394.859 138.359 395.601 139.176C396.343 139.993 396.739 140.953 396.739 141.935C396.733 143.254 396.016 144.518 394.744 145.449C393.473 146.381 391.751 146.904 389.956 146.904Z" fill="white" stroke="#2E353A" stroke-width="0.916642" stroke-linecap="round" stroke-linejoin="round"/>
<path d="M389.956 125.352C389.482 125.352 389.028 125.214 388.693 124.968C388.357 124.721 388.169 124.387 388.169 124.039V111.744C388.169 111.396 388.357 111.062 388.693 110.815C389.028 110.569 389.482 110.431 389.956 110.431C390.432 110.431 390.889 110.568 391.228 110.814C391.566 111.06 391.759 111.394 391.765 111.744V124.039C391.759 124.389 391.566 124.723 391.228 124.969C390.889 125.215 390.432 125.352 389.956 125.352Z" fill="white" stroke="#2E353A" stroke-width="0.916642" stroke-linecap="round" stroke-linejoin="round"/>
<path d="M389.956 142.268C389.482 142.268 389.028 142.13 388.693 141.884C388.357 141.637 388.169 141.303 388.169 140.955V128.66C388.169 128.312 388.357 127.978 388.693 127.731C389.028 127.485 389.482 127.347 389.956 127.347C390.432 127.347 390.889 127.485 391.228 127.73C391.566 127.976 391.759 128.31 391.765 128.66V140.955C391.759 141.305 391.566 141.639 391.228 141.885C390.889 142.131 390.432 142.268 389.956 142.268Z" fill="white" stroke="#2E353A" stroke-width="0.916642" stroke-linecap="round" stroke-linejoin="round"/>
<path d="M389.956 159.215C389.482 159.215 389.028 159.076 388.693 158.83C388.357 158.584 388.169 158.25 388.169 157.901V145.606C388.169 145.434 388.215 145.263 388.305 145.104C388.395 144.944 388.527 144.8 388.693 144.678C388.859 144.556 389.056 144.459 389.272 144.393C389.489 144.327 389.722 144.293 389.956 144.293C390.432 144.293 390.889 144.431 391.228 144.677C391.566 144.923 391.759 145.257 391.765 145.606V157.901C391.759 158.251 391.566 158.585 391.228 158.831C390.889 159.077 390.432 159.215 389.956 159.215Z" fill="white" stroke="#2E353A" stroke-width="0.916642" stroke-linecap="round" stroke-linejoin="round"/>
<path d="M442.408 104.75H47.8566L35.4542 79.5591H469.646L442.408 104.75Z" fill="#2E353A" stroke="#2E353A" stroke-width="0.887535" stroke-linecap="round" stroke-linejoin="round"/>
<path d="M432.353 104.75H37.8013L25.3989 79.5591H459.612L432.353 104.75Z" fill="white" stroke="#2E353A" stroke-width="0.887535" stroke-linecap="round" stroke-linejoin="round"/>
<path d="M111.032 504.898H78.7555L88.5095 9.76025H94.237L111.032 27.277V504.898Z" fill="#2E353A" stroke="#2E353A" stroke-width="0.887535" stroke-linecap="round" stroke-linejoin="round"/>
<path d="M105.282 504.898H73.0058V27.277L88.5088 9.76025L105.282 27.277V504.898Z" fill="white" stroke="#2E353A" stroke-width="0.887535" stroke-linecap="round" stroke-linejoin="round"/>
<path d="M78.7555 504.898V474.438" stroke="#2E353A" stroke-width="0.887535" stroke-linecap="round" stroke-linejoin="round"/>
<path d="M84.3965 504.898V393.642" stroke="#2E353A" stroke-width="0.887535" stroke-linecap="round" stroke-linejoin="round"/>
<path d="M78.7555 469.817V458.741" stroke="#2E353A" stroke-width="0.887535" stroke-linecap="round" stroke-linejoin="round"/>
<path d="M94.8826 308.796V297.719" stroke="#2E353A" stroke-width="0.887535" stroke-linecap="round" stroke-linejoin="round"/>
<path d="M78.7555 32.0092V20.9326" stroke="#2E353A" stroke-width="0.887535" stroke-linecap="round" stroke-linejoin="round"/>
<path d="M78.7555 46.598V35.5215" stroke="#2E353A" stroke-width="0.887535" stroke-linecap="round" stroke-linejoin="round"/>
<path d="M94.8826 379.021V321.233" stroke="#2E353A" stroke-width="0.887535" stroke-linecap="round" stroke-linejoin="round"/>
<path d="M28.5643 84.8125H39.8685" stroke="#2E353A" stroke-width="0.887535" stroke-linecap="round" stroke-linejoin="round"/>
<path d="M33.5807 88.9741H60.6033" stroke="#2E353A" stroke-width="0.887535" stroke-linecap="round" stroke-linejoin="round"/>
<path d="M134.028 88.9741H161.029" stroke="#2E353A" stroke-width="0.887535" stroke-linecap="round" stroke-linejoin="round"/>
<path d="M147.528 93.5942H157.023" stroke="#2E353A" stroke-width="0.887535" stroke-linecap="round" stroke-linejoin="round"/>
<path d="M195.479 93.5942H251.85" stroke="#2E353A" stroke-width="0.887535" stroke-linecap="round" stroke-linejoin="round"/>
<path d="M445.035 93.5942H435.604" stroke="#2E353A" stroke-width="0.887535" stroke-linecap="round" stroke-linejoin="round"/>
<path d="M440.621 96.8223H408.603" stroke="#2E353A" stroke-width="0.887535" stroke-linecap="round" stroke-linejoin="round"/>
<path d="M7.48414 512.225H28.607C28.607 512.225 -9.74141 487.097 7.48414 489.66C24.7097 492.224 39.7821 501.148 39.7821 501.148C39.7821 501.148 19.4128 487.065 33.4947 489.628C47.5766 492.192 46.9952 496.433 46.9952 496.433C46.9952 496.433 48.0934 466.004 60.5173 474.406C67.7298 479.04 72.1825 485.568 72.9197 492.588C72.9197 492.588 99.4686 468.456 105.218 469.786C110.967 471.115 110.967 485.878 110.967 485.878C110.967 485.878 155.559 459.168 147.463 474.406C139.367 489.644 133.963 495.372 133.963 495.372C133.963 495.372 154.892 481.78 152.222 489.628C151.082 493.416 149.489 497.123 147.463 500.705C147.463 500.705 178.943 507.952 174.292 507.936C169.641 507.921 160.964 512.32 160.964 512.32C160.964 512.32 214.126 505.99 204.028 512.32C193.929 518.649 110.924 517.589 110.924 517.589C110.924 517.589 151.468 524.884 134.027 524.884C116.586 524.884 89.1548 519.598 89.1548 519.598C89.1548 519.598 48.2441 525.928 33.5809 524.884C18.9176 523.839 60.6034 519.598 60.6034 519.598C60.6034 519.598 -18.7202 519.662 7.48414 512.225Z" fill="#2E353A" stroke="#2E353A" stroke-width="0.916642" stroke-linecap="round" stroke-linejoin="round"/>
</g>
</svg>
