<svg width="39" height="27" viewBox="0 0 39 27" fill="none" xmlns="http://www.w3.org/2000/svg">
<g opacity="0.4">
<path d="M24.3021 26.4288C24.2406 26.4282 24.1801 26.4131 24.1256 26.3845C24.0711 26.356 24.0242 26.3149 23.9887 26.2646L19.5116 19.6087C19.4837 19.5677 19.4642 19.5215 19.4544 19.4729C19.4445 19.4243 19.4444 19.3742 19.4542 19.3256C19.4639 19.2769 19.4832 19.2307 19.511 19.1896C19.5388 19.1485 19.5745 19.1134 19.616 19.0863C19.6559 19.0588 19.7009 19.0396 19.7483 19.0299C19.7957 19.0202 19.8447 19.0203 19.8921 19.03C19.9395 19.0398 19.9845 19.059 20.0243 19.0867C20.064 19.1143 20.0978 19.1497 20.1235 19.1908L24.0484 25.026L24.8095 19.34C24.8225 19.264 24.8578 19.1936 24.911 19.1378C24.9642 19.082 25.0327 19.0433 25.108 19.0266C25.1975 19.0266 34.6144 16.8925 37.3306 11.7737C37.7779 10.9135 38.0251 9.96337 38.0535 8.99426C38.0819 8.02514 37.8909 7.06213 37.4947 6.17724C35.3308 0.759911 22.571 -0.135515 12.4377 2.4463C5.37877 4.23715 1.22997 7.31145 1.60306 10.4753C2.67758 19.5042 8.69185 19.0415 8.94556 19.0266C8.99379 19.0204 9.04277 19.0241 9.08954 19.0374C9.13631 19.0507 9.17989 19.0734 9.21759 19.1042C9.25529 19.1349 9.28633 19.173 9.30884 19.2161C9.33134 19.2592 9.34485 19.3064 9.34851 19.3549C9.35722 19.4533 9.3281 19.5512 9.2671 19.6289C9.20609 19.7065 9.1178 19.758 9.02018 19.7728C8.94556 19.7728 2.03585 20.3399 0.871791 10.5648C0.439002 6.95328 4.69227 3.64021 12.2437 1.71505C21.4815 -0.642909 35.6293 -0.493675 38.1812 5.90862C38.6212 6.89056 38.8323 7.95961 38.7987 9.03509C38.7651 10.1106 38.4876 11.1643 37.9872 12.1169C35.3457 17.1164 27.1078 19.3102 25.5258 19.6982L24.6603 26.1005C24.6484 26.1746 24.6152 26.2435 24.5649 26.2992C24.5146 26.3548 24.4492 26.3946 24.3767 26.4139L24.3021 26.4288Z" fill="white"/>
</g>
</svg>
