<svg width="41" height="38" viewBox="0 0 41 38" fill="none" xmlns="http://www.w3.org/2000/svg">
<g opacity="0.4">
<path d="M39.7823 37.356C39.7093 37.378 39.6315 37.378 39.5585 37.356L28.9029 29.7896C27.0523 30.6403 13.2926 36.4009 3.36834 26.402C-0.914785 22.1039 -1.10878 15.4778 2.92064 9.50825C5.69154 5.36683 9.82691 2.32815 14.607 0.921116C19.3871 -0.485923 24.5093 -0.172241 29.082 1.80758C35.2008 4.37447 38.8272 7.77709 39.857 12.0453C41.3493 18.2387 36.7677 23.7604 36.5737 23.9843C36.5446 24.0281 36.5066 24.0652 36.4622 24.0933C36.4178 24.1213 36.3679 24.1397 36.3159 24.1471C36.2638 24.1546 36.2108 24.151 36.1603 24.1365C36.1098 24.122 36.0629 24.0971 36.0226 24.0632C35.9824 24.0294 35.9499 23.9874 35.927 23.9401C35.9042 23.8927 35.8915 23.8411 35.89 23.7886C35.8885 23.736 35.8981 23.6838 35.9182 23.6352C35.9383 23.5866 35.9684 23.5429 36.0066 23.5068C36.0066 23.5068 40.4837 18.0148 39.1257 12.2094C38.1556 8.20988 34.6486 4.94159 28.7835 2.47917C24.3682 0.57698 19.426 0.281839 14.8157 1.64503C10.2053 3.00823 6.21831 5.94359 3.54741 9.94105C0.562661 14.4182 -0.9297 20.9996 3.89068 25.8946C14.1284 36.177 28.6193 29.1181 28.7686 29.0435C28.828 29.0108 28.8948 28.9937 28.9626 28.9937C29.0304 28.9937 29.0972 29.0108 29.1566 29.0435L38.484 35.6398L34.8127 29.521C34.782 29.4788 34.7605 29.4306 34.7496 29.3796C34.7387 29.3285 34.7386 29.2757 34.7494 29.2247C34.7601 29.1736 34.7815 29.1253 34.8121 29.083C34.8427 29.0407 34.8818 29.0053 34.9269 28.979C34.972 28.9528 35.0222 28.9363 35.0741 28.9307C35.126 28.925 35.1785 28.9304 35.2282 28.9463C35.2779 28.9622 35.3237 28.9884 35.3627 29.0231C35.4017 29.0578 35.4329 29.1004 35.4544 29.1479L40.0957 36.8188C40.1454 36.8856 40.1722 36.9668 40.1722 37.0501C40.1722 37.1334 40.1454 37.2145 40.0957 37.2814C40.0536 37.3185 40.003 37.3448 39.9483 37.3578C39.8937 37.3708 39.8367 37.3702 39.7823 37.356Z" fill="white"/>
</g>
</svg>
