<svg width="37" height="32" viewBox="0 0 37 32" fill="none" xmlns="http://www.w3.org/2000/svg">
<g opacity="0.4">
<path d="M30.9644 31.608C30.9049 31.6076 30.8465 31.5923 30.7944 31.5637C30.7423 31.535 30.6981 31.4938 30.6659 31.4438L24.8755 23.579L3.60911 26.1608C3.56162 26.167 3.51338 26.1635 3.46724 26.1507C3.4211 26.1379 3.37801 26.116 3.3405 26.0862C3.30036 26.0569 3.26744 26.0188 3.24417 25.9748C3.2209 25.9309 3.2079 25.8822 3.20619 25.8325L0.519926 3.25285C0.51257 3.20299 0.515391 3.15218 0.528215 3.10344C0.54104 3.05471 0.563585 3.00907 0.594527 2.96929C0.666641 2.89589 0.761156 2.84864 0.863144 2.83498L33.5761 0.268094C33.6742 0.263671 33.7704 0.296638 33.8451 0.360343C33.9199 0.424047 33.9678 0.51374 33.979 0.611334C33.9834 0.709473 33.9505 0.805646 33.8868 0.880429C33.8231 0.955213 33.7334 1.00305 33.6358 1.01428L1.25118 3.5364L3.83301 25.2953L24.9352 22.7433C25.0005 22.7357 25.0666 22.7455 25.1269 22.7718C25.1872 22.798 25.2395 22.8396 25.2785 22.8925L29.7556 28.862L27.6364 22.8925C27.6149 22.8457 27.6038 22.7948 27.6038 22.7433C27.6038 22.6918 27.6149 22.6409 27.6364 22.5941C27.6632 22.5461 27.6996 22.5042 27.7432 22.4708C27.7868 22.4375 27.8368 22.4134 27.8901 22.4L35.7848 20.9077L33.785 4.74522C33.7763 4.64687 33.8054 4.54889 33.8664 4.47126C33.9274 4.39362 34.0157 4.34217 34.1133 4.32736C34.1624 4.32112 34.2122 4.32469 34.2598 4.33786C34.3075 4.35103 34.3521 4.37355 34.3909 4.4041C34.4298 4.43465 34.4622 4.47261 34.4863 4.5158C34.5104 4.55899 34.5256 4.60655 34.5312 4.65569L36.5758 21.1614C36.5817 21.2569 36.5533 21.3514 36.4959 21.428C36.4385 21.5045 36.3557 21.5581 36.2623 21.5792L28.4572 23.0716L31.2927 30.9961C31.3216 31.082 31.3195 31.1753 31.2868 31.2598C31.2541 31.3443 31.1928 31.4147 31.1137 31.4588C31.0781 31.5209 31.0265 31.5724 30.9644 31.608Z" fill="white"/>
</g>
</svg>
