<svg width="42" height="27" viewBox="0 0 42 27" fill="none" xmlns="http://www.w3.org/2000/svg">
<g opacity="0.4">
<path d="M13.5816 26.7726C13.5274 26.7721 13.474 26.7599 13.425 26.7367C13.3761 26.7135 13.3327 26.6799 13.2981 26.6383C13.2484 26.5714 13.2216 26.4903 13.2216 26.407C13.2216 26.3236 13.2484 26.2425 13.2981 26.1756L16.9245 21.3254L3.88116 21.803C3.83216 21.805 3.78323 21.7973 3.7372 21.7804C3.69116 21.7634 3.64892 21.7376 3.61288 21.7043C3.57685 21.6711 3.54772 21.6311 3.52717 21.5865C3.50662 21.542 3.49507 21.4938 3.49315 21.4448C3.49286 21.3469 3.5296 21.2525 3.59603 21.1805C3.66246 21.1085 3.75366 21.0643 3.85131 21.0568L17.6856 20.5494C17.755 20.5481 17.8234 20.5654 17.8837 20.5995C17.9441 20.6337 17.9942 20.6834 18.0289 20.7434C18.0616 20.8055 18.0786 20.8747 18.0786 20.9449C18.0786 21.0151 18.0616 21.0842 18.0289 21.1463L14.8203 25.4295L21.924 22.1164C21.9727 22.1023 22.0245 22.1023 22.0732 22.1164H40.6086V1.31264C25.5952 1.11863 3.29913 0.969391 1.44858 1.31264C1.16503 2.26776 2.25448 8.41637 3.49315 13.968C3.50415 14.016 3.50552 14.0658 3.4972 14.1143C3.48888 14.1629 3.47103 14.2093 3.44467 14.251C3.41831 14.2926 3.38396 14.3286 3.34361 14.3568C3.30326 14.3851 3.25772 14.4051 3.20959 14.4157C3.16249 14.4266 3.11366 14.4278 3.06606 14.4193C3.01847 14.4109 2.9731 14.3928 2.93267 14.3663C2.89223 14.3398 2.85757 14.3054 2.83079 14.2652C2.804 14.2249 2.78562 14.1797 2.77679 14.1322C0.86655 5.6107 0.284526 1.07387 1.03071 0.70078C1.7769 0.327686 31.8483 0.536619 40.9966 0.70078C41.0929 0.704637 41.184 0.745631 41.2508 0.815186C41.3176 0.884741 41.3548 0.977456 41.3547 1.07387V22.5939C41.3547 22.6929 41.3154 22.7878 41.2455 22.8578C41.1755 22.9278 41.0806 22.967 40.9817 22.967H22.1329L13.7607 26.8771L13.5816 26.7726Z" fill="white"/>
</g>
</svg>
