<svg width="48" height="27" viewBox="0 0 48 27" fill="none" xmlns="http://www.w3.org/2000/svg">
<g opacity="0.4">
<path d="M10.9325 26.8784C10.8431 26.8796 10.7562 26.8486 10.6877 26.791C10.6192 26.7335 10.5737 26.6533 10.5594 26.565L9.41027 18.2674L1.12757 16.775C1.04421 16.7617 0.967826 16.7205 0.910901 16.6582C0.853976 16.5958 0.819863 16.516 0.814166 16.4318C0.810963 16.3447 0.83721 16.259 0.888653 16.1886C0.940095 16.1182 1.01374 16.0672 1.09772 16.0438L9.38042 13.8351V2.91085C9.38042 2.8119 9.41973 2.71701 9.4897 2.64704C9.55967 2.57707 9.65456 2.53776 9.75351 2.53776C9.85246 2.53776 9.94736 2.57707 10.0173 2.64704C10.0873 2.71701 10.1266 2.8119 10.1266 2.91085V14.1186C10.1257 14.2013 10.0974 14.2813 10.0461 14.3462C9.99474 14.411 9.92332 14.4569 9.84305 14.4768L2.91842 16.3273L9.8132 17.5362C9.89137 17.5462 9.9637 17.5828 10.0181 17.6399C10.0724 17.6969 10.1055 17.771 10.1117 17.8496L11.2459 26.0726L47.1674 23.9534V1.04538H12.7084C12.6095 1.04538 12.5146 1.00609 12.4446 0.936123C12.3746 0.866155 12.3353 0.771239 12.3353 0.672289C12.3353 0.573338 12.3746 0.478445 12.4446 0.408477C12.5146 0.338508 12.6095 0.299194 12.7084 0.299194H47.5405C47.6383 0.302888 47.731 0.343391 47.8002 0.412575C47.8694 0.48176 47.9099 0.574517 47.9136 0.672289V24.3414C47.9102 24.4367 47.8718 24.5275 47.8057 24.5963C47.7397 24.6651 47.6506 24.7072 47.5554 24.7145L10.9474 26.8784H10.9325Z" fill="white"/>
</g>
</svg>
