<svg width="21" height="4" viewBox="0 0 21 4" fill="none" xmlns="http://www.w3.org/2000/svg">
<path d="M20.1898 2.9478C20.0982 3.0107 19.9865 3.0373 19.8764 3.02243L1.34106 1.97777C1.16116 1.96362 0.992482 1.88475 0.866263 1.75579C0.740044 1.62682 0.664848 1.45651 0.654576 1.27635C0.643347 1.19525 0.650272 1.11266 0.674888 1.03458C0.699504 0.956498 0.741191 0.884868 0.7969 0.824874C0.852609 0.76488 0.920972 0.71802 0.997019 0.687696C1.07307 0.657371 1.15487 0.644354 1.23658 0.649553L19.7719 1.69421C19.9491 1.71175 20.1143 1.79209 20.2374 1.92072C20.3606 2.04936 20.4336 2.21781 20.4435 2.39563C20.4598 2.5024 20.4445 2.6116 20.3994 2.70975C20.3543 2.80789 20.2814 2.89066 20.1898 2.9478Z" fill="white"/>
</svg>
