<svg width="9" height="12" viewBox="0 0 9 12" fill="none" xmlns="http://www.w3.org/2000/svg">
<path d="M1.77158 11.7071C1.66126 11.7686 1.53459 11.7944 1.40901 11.781C1.28342 11.7677 1.16508 11.7158 1.07016 11.6325C0.927367 11.5277 0.827447 11.3746 0.78902 11.2017C0.750592 11.0287 0.776248 10.8477 0.861206 10.6923L7.03967 0.947081C7.08649 0.879246 7.14719 0.822141 7.21775 0.779525C7.2883 0.736909 7.36709 0.709745 7.44893 0.699869C7.53076 0.689993 7.61374 0.697624 7.6924 0.722231C7.77107 0.746838 7.84361 0.787879 7.90523 0.842626C8.04802 0.947452 8.1479 1.10055 8.18632 1.27347C8.22475 1.44639 8.19914 1.62737 8.11418 1.78281L1.93572 11.543C1.89291 11.6084 1.83704 11.6643 1.77158 11.7071Z" fill="white"/>
</svg>
