<svg width="12" height="17" viewBox="0 0 12 17" fill="none" xmlns="http://www.w3.org/2000/svg">
<path d="M10.1628 16.6169C10.2647 16.6909 10.3875 16.7307 10.5135 16.7307C10.6395 16.7307 10.7623 16.6909 10.8642 16.6169C11.007 16.512 11.1069 16.3589 11.1453 16.186C11.1838 16.0131 11.1581 15.8321 11.0731 15.6767L1.82041 1.09616C1.77402 1.02735 1.71309 0.969561 1.64192 0.92687C1.57076 0.884179 1.4911 0.85762 1.40855 0.849081C1.32601 0.840542 1.24259 0.850213 1.16419 0.877432C1.08579 0.904651 1.01432 0.948761 0.954825 1.00662C0.812031 1.11144 0.712156 1.26454 0.673729 1.43746C0.635302 1.61038 0.660935 1.79136 0.745893 1.9468L9.99865 16.5124C10.0447 16.5592 10.1008 16.595 10.1628 16.6169Z" fill="white"/>
</svg>
