<svg width="18" height="3" viewBox="0 0 18 3" fill="none" xmlns="http://www.w3.org/2000/svg">
<path d="M17.2311 2.32104C17.1381 2.38174 17.0288 2.41294 16.9177 2.41058L1.39699 1.7241C1.2182 1.70698 1.05124 1.62718 0.925613 1.49881C0.799981 1.37045 0.723779 1.2018 0.71051 1.02268C0.697144 0.941765 0.701963 0.858881 0.724628 0.780066C0.747294 0.701251 0.787233 0.628487 0.841539 0.567036C0.895845 0.505584 0.963178 0.456989 1.03861 0.424802C1.11404 0.392616 1.19568 0.377631 1.27762 0.380944L16.7983 1.06745C16.9782 1.08159 17.1469 1.16044 17.2731 1.2894C17.3993 1.41837 17.4745 1.58871 17.4848 1.76887C17.5012 1.87563 17.4859 1.98484 17.4408 2.08298C17.3957 2.18113 17.3228 2.2639 17.2311 2.32104Z" fill="white"/>
</svg>
