<svg width="18" height="3" viewBox="0 0 18 3" fill="none" xmlns="http://www.w3.org/2000/svg">
<path d="M1.00276 2.32094C1.1012 2.38201 1.21528 2.41312 1.33109 2.41048L16.8518 1.724C17.0295 1.70408 17.1949 1.6234 17.32 1.49559C17.4451 1.36778 17.5222 1.20069 17.5383 1.02258C17.5492 0.940817 17.5421 0.857667 17.5176 0.778917C17.4931 0.700168 17.4516 0.627712 17.3962 0.566615C17.3408 0.505519 17.2727 0.45724 17.1968 0.425156C17.1208 0.393073 17.0387 0.377948 16.9563 0.380842L1.43554 1.06735C1.25782 1.08726 1.09242 1.16794 0.967332 1.29575C0.842242 1.42356 0.765148 1.59065 0.749064 1.76876C0.73804 1.87509 0.755763 1.98242 0.800391 2.07956C0.845019 2.17669 0.914912 2.26004 1.00276 2.32094Z" fill="white"/>
</svg>
