<svg width="11" height="17" viewBox="0 0 11 17" fill="none" xmlns="http://www.w3.org/2000/svg">
<path d="M1.0858 16.6169C0.984791 16.6931 0.86169 16.7344 0.735118 16.7344C0.608545 16.7344 0.485399 16.6931 0.384385 16.6169C0.241591 16.512 0.141717 16.3589 0.10329 16.186C0.0648623 16.0131 0.0905185 15.8321 0.175476 15.6767L9.42823 1.09616C9.47462 1.02735 9.53555 0.969561 9.60672 0.92687C9.67788 0.884179 9.75754 0.85762 9.84008 0.849081C9.92263 0.840542 10.006 0.850213 10.0844 0.877432C10.1628 0.904651 10.2343 0.948761 10.2938 1.00662C10.4366 1.11144 10.5365 1.26454 10.5749 1.43746C10.6133 1.61038 10.5877 1.79136 10.5027 1.9468L1.24999 16.5124C1.20391 16.5592 1.14775 16.595 1.0858 16.6169Z" fill="white"/>
</svg>
