<svg width="45" height="53" viewBox="0 0 45 53" fill="none" xmlns="http://www.w3.org/2000/svg">
<path d="M14.355 52.169H14.161C13.9865 52.188 13.811 52.1423 13.6679 52.0405C13.5249 51.9387 13.4242 51.7879 13.385 51.6168C9.69879 38.0809 0.744531 24.9928 0.654988 24.8734C0.596885 24.795 0.555088 24.7057 0.53202 24.6109C0.508952 24.516 0.505086 24.4175 0.52068 24.3212C0.532373 24.2363 0.564216 24.1554 0.613543 24.0853C0.662871 24.0152 0.728256 23.9579 0.804235 23.9183C13.176 17.3816 42.7997 0.458092 43.0982 0.279007C43.2551 0.20557 43.4344 0.195625 43.5984 0.251248C43.7625 0.306871 43.8988 0.423753 43.9787 0.577478C44.0755 0.721994 44.111 0.899015 44.0775 1.06969C44.0439 1.24037 43.944 1.39075 43.7996 1.48783C43.5161 1.65199 14.758 18.0681 2.01306 24.8137C3.8636 27.6492 11.236 39.3345 14.5192 51.4078C14.5906 51.5326 14.6134 51.6794 14.5831 51.8199C14.5528 51.9604 14.4716 52.0848 14.355 52.169Z" fill="white"/>
</svg>
