<svg width="44" height="53" viewBox="0 0 44 53" fill="none" xmlns="http://www.w3.org/2000/svg">
<path d="M29.8942 52.169H30.0882C30.2622 52.1848 30.4361 52.1378 30.5784 52.0365C30.7208 51.9352 30.8222 51.7863 30.8643 51.6168C34.5504 38.0809 43.5047 24.9928 43.5942 24.8734C43.6993 24.7098 43.7418 24.5136 43.7136 24.3212C43.7074 24.2346 43.6778 24.1513 43.6278 24.0803C43.5779 24.0093 43.5095 23.9533 43.4301 23.9183C31.0732 17.3816 1.44949 0.458093 1.15102 0.279007C0.994092 0.20557 0.814854 0.195625 0.650766 0.251248C0.486678 0.306871 0.350443 0.423753 0.270522 0.577478C0.17224 0.72018 0.134338 0.895937 0.165088 1.06646C0.195838 1.23698 0.292747 1.38844 0.434684 1.48783C0.733159 1.65199 29.4763 18.0681 42.2212 24.8137C40.3707 27.6492 32.9984 39.3345 29.7002 51.4078C29.6381 51.5373 29.6235 51.6845 29.659 51.8236C29.6944 51.9628 29.7777 52.085 29.8942 52.169Z" fill="white"/>
</svg>
