<svg width="46" height="51" viewBox="0 0 46 51" fill="none" xmlns="http://www.w3.org/2000/svg">
<path d="M44.738 29.2757H44.6336C33.784 33.0514 2.17544 50.2734 1.86205 50.4376C1.70549 50.5093 1.52702 50.5166 1.36512 50.458C1.20322 50.3994 1.07082 50.2795 0.996441 50.1242C0.948884 50.0538 0.915813 49.9747 0.899069 49.8914C0.882325 49.8081 0.882273 49.7224 0.898932 49.6391C0.915591 49.5558 0.948592 49.4766 0.996077 49.4062C1.04356 49.3358 1.1046 49.2755 1.17556 49.2288C1.48896 49.0646 32.1274 32.3798 43.5441 28.2012C42.0517 24.5449 34.3959 6.00953 30.1127 1.48763C29.9931 1.36033 29.9265 1.19221 29.9265 1.01753C29.9265 0.842844 29.9931 0.67475 30.1127 0.547449C30.1687 0.486376 30.2367 0.437601 30.3125 0.404237C30.3883 0.370872 30.4702 0.353638 30.553 0.353638C30.6358 0.353638 30.7177 0.370872 30.7935 0.404237C30.8693 0.437601 30.9373 0.486376 30.9932 0.547449C35.8882 5.74092 44.5739 27.4102 44.947 28.3654C44.9978 28.4373 45.0329 28.5192 45.05 28.6057C45.067 28.6922 45.0656 28.7813 45.0459 28.8672C45.0262 28.9531 44.9886 29.0339 44.9355 29.1043C44.8825 29.1747 44.8152 29.2331 44.738 29.2757Z" fill="white"/>
</svg>
