<svg width="21" height="4" viewBox="0 0 21 4" fill="none" xmlns="http://www.w3.org/2000/svg">
<path d="M1.04445 2.94788C1.14173 3.01056 1.25797 3.03698 1.37278 3.02251L19.9081 1.97785C20.0853 1.96031 20.2504 1.87995 20.3736 1.75131C20.4968 1.62268 20.5699 1.45425 20.5797 1.27643C20.5935 1.19618 20.5888 1.11385 20.5661 1.03566C20.5434 0.957477 20.5032 0.885487 20.4486 0.825113C20.3939 0.764739 20.3263 0.717562 20.2508 0.687161C20.1752 0.65676 20.0938 0.643937 20.0126 0.649633L1.47725 1.69429C1.29846 1.71141 1.13149 1.79121 1.00585 1.91957C0.880222 2.04794 0.80402 2.21659 0.790751 2.39571C0.779727 2.50203 0.79745 2.60937 0.842078 2.7065C0.886706 2.80363 0.956599 2.88699 1.04445 2.94788Z" fill="white"/>
</svg>
