<svg width="22" height="51" viewBox="0 0 22 51" fill="none" xmlns="http://www.w3.org/2000/svg">
<path d="M0.87944 50.9726C1.07319 51.0028 1.27106 50.9556 1.43025 50.8411C1.58943 50.7266 1.69715 50.554 1.73011 50.3607C7.22205 18.6029 20.9967 1.91814 21.131 1.75398C21.2577 1.6016 21.3186 1.40516 21.3004 1.20785C21.2822 1.01053 21.1864 0.828511 21.034 0.701854C20.8816 0.575197 20.6851 0.514263 20.4878 0.532454C20.2905 0.550646 20.1085 0.646478 19.9819 0.798862C19.8476 0.963024 5.81921 17.9314 0.252644 50.0473C0.217759 50.2412 0.260939 50.441 0.372766 50.6031C0.484592 50.7652 0.656008 50.8766 0.849608 50.9129L0.87944 50.9726Z" fill="white"/>
</svg>
