<svg width="18" height="3" viewBox="0 0 18 3" fill="none" xmlns="http://www.w3.org/2000/svg">
<path d="M17.6377 2.42514C17.5393 2.48622 17.4252 2.51732 17.3094 2.51468L1.41562 1.47002C1.23682 1.45291 1.06987 1.3731 0.944241 1.24474C0.818609 1.11638 0.742407 0.947725 0.729138 0.768605C0.717544 0.686169 0.724733 0.602181 0.750179 0.522919C0.775625 0.443657 0.81865 0.371172 0.876062 0.31089C0.933473 0.250608 1.00381 0.204086 1.08174 0.174806C1.15966 0.145525 1.24318 0.134248 1.32608 0.141809L17.2199 1.17155C17.3973 1.19523 17.561 1.27946 17.6834 1.41C17.8058 1.54054 17.8793 1.70937 17.8915 1.88789C17.9013 1.99197 17.883 2.09678 17.8383 2.19132C17.7937 2.28586 17.7244 2.36663 17.6377 2.42514Z" fill="white"/>
</svg>
