<svg width="45" height="51" viewBox="0 0 45 51" fill="none" xmlns="http://www.w3.org/2000/svg">
<path d="M0.511003 29.2756H0.61548C11.4651 33.0513 43.0587 50.2733 43.387 50.4375C43.5436 50.5092 43.722 50.5165 43.8839 50.4579C44.0458 50.3993 44.1782 50.2794 44.2526 50.1241C44.3001 50.0537 44.3332 49.9746 44.35 49.8913C44.3667 49.808 44.3668 49.7223 44.3501 49.639C44.3335 49.5557 44.3004 49.4765 44.253 49.4061C44.2055 49.3357 44.1445 49.2754 44.0735 49.2287C43.7601 49.0645 13.1216 32.3798 1.70491 28.2011C3.19729 24.5448 10.8383 6.00944 15.1363 1.48753C15.2527 1.35863 15.3172 1.19112 15.3172 1.01743C15.3172 0.843746 15.2527 0.676257 15.1363 0.547352C15.079 0.485888 15.0097 0.436859 14.9327 0.403343C14.8557 0.369827 14.7726 0.352539 14.6886 0.352539C14.6046 0.352539 14.5215 0.369827 14.4445 0.403343C14.3674 0.436859 14.2981 0.485888 14.2409 0.547352C9.36082 5.74082 0.675165 27.4101 0.302071 28.3653C0.251213 28.4373 0.216129 28.5191 0.199074 28.6056C0.182019 28.6921 0.183387 28.7812 0.203104 28.8671C0.222821 28.953 0.260446 29.0338 0.313502 29.1042C0.366559 29.1746 0.433843 29.233 0.511003 29.2756Z" fill="white"/>
</svg>
