<svg width="23" height="13" viewBox="0 0 23 13" fill="none" xmlns="http://www.w3.org/2000/svg">
<path d="M22.3977 10.2896H22.2932C22.125 10.3339 21.9464 10.3141 21.792 10.2341C21.6376 10.1542 21.5183 10.0197 21.4575 9.85679L18.1444 2.17104C15.1596 3.9022 2.92214 11.3641 1.72824 12.2297C1.58091 12.313 1.40707 12.3363 1.24301 12.2946C1.07895 12.2529 0.937355 12.1494 0.847741 12.0058C0.740448 11.8698 0.689869 11.6976 0.706555 11.5252C0.723241 11.3527 0.805899 11.1934 0.93728 11.0805C2.31027 10.0956 17.3534 1.00699 17.9504 0.633893C18.0314 0.593199 18.1209 0.572021 18.2116 0.572021C18.3022 0.572021 18.3917 0.593199 18.4727 0.633893C18.6549 0.715056 18.8028 0.857686 18.8906 1.03684L22.5767 9.54338C22.6365 9.66954 22.6513 9.81232 22.6187 9.94804C22.5862 10.0838 22.5082 10.2043 22.3977 10.2896Z" fill="white"/>
</svg>
