<svg width="244" height="187" viewBox="0 0 244 187" fill="none" xmlns="http://www.w3.org/2000/svg">
<path opacity="0.1" d="M243.306 94.349C240.993 91.4537 239.067 88.2302 236.501 85.3947C236.011 84.8633 235.653 84.2243 235.456 83.5292C233.42 83.2617 231.35 83.5773 229.486 84.4396C222.263 87.678 215.682 93.1551 209.966 98.5575C208.742 99.7066 207.489 100.796 206.235 101.9C211.876 95.6025 217.517 89.2898 223.233 83.0516C224.075 82.1765 224.734 81.1426 225.173 80.0101C225.611 78.8776 225.819 77.6692 225.785 76.4553C223.149 73.4477 220.236 70.6946 217.085 68.2324C216.498 67.8327 215.992 67.3264 215.592 66.74C213.353 66.9332 211.281 68.0066 209.832 69.7247C197.609 83.0069 185.506 96.0652 172 107.974C173.089 106.482 174.179 104.99 175.224 103.393C182.312 92.8715 189.908 82.7681 197.833 72.8587C203.415 65.8744 213.055 57.2932 214.831 48.0405C214.473 47.5928 214.1 47.1301 213.712 46.6824C213.324 46.2347 212.712 45.5333 212.22 44.9811C211.722 44.8863 211.246 44.699 210.817 44.4289C208.444 42.9366 206.937 39.713 208.832 37.1163C209.239 36.5359 209.744 36.0309 210.324 35.6239C213.204 31.9974 216.025 28.3411 218.711 24.5654C218.851 24.3683 218.981 24.1641 219.099 23.9535C217.174 18.4168 212.578 14.4023 208.101 10.6266C206.475 11.0136 205.006 11.8884 203.892 13.1338C198.505 18.969 192.326 24.1177 187.342 30.311C181.984 36.9521 177.567 44.2946 172.492 51.1297C172.4 51.2326 172.315 51.3423 172.239 51.458C166.09 58.2931 159.927 65.1133 153.957 72.0976C148.764 77.3508 143.51 82.5442 138.377 87.6482C130.273 95.8562 122.05 104.064 113.514 111.959C115.633 108.825 117.752 105.706 119.931 102.602C129.542 88.9167 140.212 76.0076 150.495 62.83C155.569 56.3381 160.21 49.5478 165.12 42.9515C169 37.758 174.806 33.0123 177.85 27.2965C178.479 26.1549 178.884 24.9038 179.044 23.6103C178.697 23.3154 178.382 22.9853 178.104 22.6253C175.558 19.6097 172.385 17.1855 168.806 15.5216C168.01 15.1328 167.353 14.5073 166.926 13.7307C165.49 14.1547 164.161 14.8825 163.031 15.8648C158.209 20.0221 153.658 24.4834 149.405 29.2216C150.797 26.9111 151.905 24.4406 152.704 21.8642C155.121 13.6113 145.913 7.53737 138.839 11.2086L138.227 11.5369C137.402 9.17193 135.755 7.18217 133.585 5.93028C131.416 4.67839 128.868 4.24774 126.408 4.71679C123.677 1.07539 118.946 -0.834853 114.603 2.43345C96.9035 15.9544 80.0397 30.9229 63.34 45.7124C61.8476 47.0555 60.3552 48.4136 58.8629 49.7717C61.7525 45.2242 64.8706 40.826 68.2051 36.594C72.0405 31.7288 77.3833 26.6547 79.4278 20.6106C79.218 20.4831 79.0228 20.3329 78.8458 20.1629C74.4596 16.1765 70.7633 11.4919 67.9067 6.2987C67.9123 6.25411 67.9123 6.20899 67.9067 6.1644C60.4448 7.83586 52.6546 12.6562 46.3567 16.2827C38.2351 21.1012 30.5632 26.6403 23.4338 32.8332C23.443 33.6127 23.3064 34.3872 23.0309 35.1165C22.8622 35.5385 22.6626 35.9475 22.4339 36.3403V37.6685C23.0491 38.8825 23.5487 40.1516 23.9263 41.4591C25.0857 42.0018 26.0684 42.8604 26.7618 43.9365C27.4267 45.1402 27.7517 46.5021 27.702 47.8763C27.702 48.2494 27.6125 48.6225 27.5528 48.9956C28.2637 49.5374 28.7859 50.2893 29.0452 51.1446C30.7587 50.8268 32.353 50.0477 33.6566 48.8911C35.6265 47.1749 37.6263 45.5184 39.6261 43.8917C37.0443 48.2047 34.5819 52.5922 32.0747 56.7858C27.6871 64.1731 23.1204 71.3365 18.0613 78.3208C14.2259 83.6337 9.107 88.2601 8.46527 94.14C12.0321 97.1248 14.5094 100.96 17.5986 104.467C17.7561 104.656 17.9007 104.856 18.0314 105.064C21.2595 104.795 24.3541 103.655 26.9857 101.766C26.1649 102.736 25.359 103.721 24.6128 104.751C17.8523 114.004 8.30112 121.48 2.22715 131.121C1.4988 132.211 0.991724 133.433 0.734772 134.718L2.85394 137.404C3.45585 138.079 3.86823 138.901 4.0491 139.787C4.22998 140.673 4.17291 141.591 3.88369 142.448L4.03291 142.583C3.77921 142.881 3.5255 143.165 3.28672 143.478C2.2703 144.764 1.54705 146.256 1.16755 147.851C3.99383 152.286 7.52202 156.232 11.6142 159.536C17.1658 159.133 22.0608 155.521 26.9708 152.701C30.3137 150.776 33.6417 148.806 36.9398 146.731C35.264 148.835 33.86 151.141 32.7612 153.596C32.3575 154.549 32.0912 155.554 31.9702 156.581C32.2461 156.736 32.5104 156.911 32.7612 157.103C36.8714 160.093 40.6846 163.472 44.148 167.192C44.6598 167.001 45.1583 166.777 45.6404 166.52C48.8776 164.755 52.0026 162.791 54.9976 160.64C54.5174 162.023 54.2703 163.475 54.2663 164.938C55.0097 164.833 55.7672 164.891 56.4862 165.107C57.2051 165.323 57.8684 165.694 58.4301 166.192C61.1163 168.505 63.2803 171.46 65.8919 173.803C66.7492 173.595 67.5627 173.236 68.2947 172.744C75.3238 167.983 81.2784 161.715 87.9941 156.521C89.6805 155.208 91.3817 153.925 93.0831 152.641C92.6358 153.976 92.4731 155.389 92.6055 156.79C93.2772 156.969 93.903 157.29 94.4411 157.73C97.6647 160.327 100.814 162.998 104.007 165.64C104.822 165.341 105.591 164.929 106.291 164.416C109.456 162.154 112.449 159.66 115.245 156.954C115.325 157.514 115.445 158.068 115.603 158.611C116.223 158.325 116.906 158.204 117.587 158.262C118.267 158.32 118.92 158.553 119.483 158.939C122.091 160.806 124.582 162.83 126.945 164.998C130.661 164.013 133.243 161.297 136.243 159.029L137.735 157.865C137.928 158.238 138.148 158.597 138.392 158.939C139.334 158.806 140.292 159.03 141.078 159.566C142.359 160.513 143.576 161.545 144.719 162.655L145.212 163.118C146.483 163.36 147.791 163.325 149.047 163.013C155.942 161.163 162.105 156.417 168.015 152.253C166.851 153.596 165.687 154.954 164.553 156.342C160.24 161.64 153.912 167.401 151.719 174.102C152.01 174.382 152.266 174.698 152.48 175.042C153.301 176.4 154.226 177.758 155.211 179.086C158.466 180.994 161.394 183.412 163.881 186.25C164.361 186.126 164.829 185.967 165.284 185.772C172.224 182.787 177.402 177.206 182.596 171.908C186.312 168.147 189.879 164.252 193.356 160.282C193.56 160.806 193.82 161.307 194.132 161.775C194.98 161.504 195.883 161.458 196.754 161.642C197.625 161.825 198.434 162.23 199.102 162.819C200.594 164.058 202.221 165.192 203.817 166.341C205.239 166.253 206.624 165.856 207.877 165.178C209.129 164.501 210.219 163.558 211.07 162.416C218.816 152.343 240.545 124.868 233.307 109.347C236.926 105.851 239.95 101.789 242.261 97.3188C242.747 96.3829 243.099 95.3831 243.306 94.349Z" fill="white"/>
</svg>
