<svg width="243" height="186" viewBox="0 0 243 186" fill="none" xmlns="http://www.w3.org/2000/svg">
<path opacity="0.1" d="M0.345886 92.4383C2.65907 95.3335 4.58426 98.5571 7.15114 101.393C7.63957 101.927 8.00167 102.565 8.21072 103.258C10.2466 103.527 12.3171 103.212 14.1802 102.348C21.4033 99.1093 27.9847 93.6323 33.7154 88.2299C34.9243 87.0807 36.1779 85.9763 37.4464 84.8869C31.7903 91.1847 26.164 97.4975 20.4482 103.736C19.6043 104.61 18.9428 105.643 18.5021 106.776C18.0615 107.908 17.8504 109.117 17.8813 110.332C20.5211 113.336 23.4337 116.089 26.5819 118.555C27.1683 118.955 27.6746 119.461 28.0743 120.047C30.3138 119.854 32.3854 118.781 33.8348 117.063C46.0574 103.78 58.1606 90.7221 71.6666 78.8129C70.5921 80.3053 69.4877 81.7977 68.4431 83.3945C61.3543 93.8412 53.7581 104.019 45.8485 113.929C40.2521 120.913 30.6113 129.494 28.8354 138.747C29.2085 139.195 29.5666 139.657 29.9547 140.105C30.3427 140.553 30.9695 141.254 31.447 141.806C31.945 141.901 32.4208 142.088 32.8499 142.358C35.2228 143.851 36.73 147.074 34.8347 149.671C34.4319 150.255 33.9262 150.761 33.3423 151.163C30.4621 154.79 27.6564 158.446 24.9552 162.222C24.8153 162.419 24.6858 162.623 24.5672 162.834C26.5073 168.37 31.0889 172.37 35.566 176.161C37.1928 175.776 38.662 174.901 39.7745 173.653C45.1769 167.818 51.3404 162.67 56.325 156.476C61.6826 149.835 66.1 142.493 71.1741 135.583L71.4427 135.255C77.5764 128.42 83.7399 121.599 89.7094 114.615C94.9178 109.362 100.156 104.168 105.29 99.0645C113.393 90.8564 121.616 82.6483 130.153 74.7537C128.034 77.8877 125.915 81.0067 123.736 84.1109C114.125 97.796 103.454 110.705 93.1718 123.883C88.0977 130.375 83.4564 137.165 78.5465 143.761C74.6663 148.955 68.8609 153.7 65.8165 159.416C65.1875 160.558 64.7823 161.809 64.6226 163.102C64.9725 163.394 65.288 163.724 65.5628 164.087C68.111 167.107 71.2896 169.532 74.8752 171.191C75.6678 171.58 76.3198 172.206 76.7407 172.982C78.179 172.563 79.5084 171.834 80.6358 170.848C85.4613 166.663 90.0171 162.177 94.2761 157.416C92.8795 159.727 91.7671 162.197 90.963 164.774C88.5454 173.027 97.7533 179.101 104.827 175.429L105.439 175.101C106.264 177.466 107.912 179.456 110.081 180.708C112.251 181.96 114.798 182.39 117.259 181.921C119.99 185.563 124.721 187.473 129.063 184.205C146.763 170.684 163.627 155.715 180.342 140.926L184.819 136.866C181.929 141.414 178.811 145.812 175.476 150.044C171.641 154.909 166.298 159.983 164.269 166.027C164.473 166.162 164.668 166.312 164.851 166.475C169.163 170.462 172.798 175.124 175.611 180.28C175.611 180.28 175.611 180.369 175.611 180.414C183.073 178.742 190.863 173.922 197.176 170.296C205.29 165.473 212.957 159.934 220.084 153.745C220.074 152.966 220.211 152.191 220.486 151.462C220.661 151.043 220.861 150.634 221.083 150.238C221.083 149.805 221.083 149.358 221.083 148.91C220.462 147.699 219.963 146.429 219.591 145.119C218.432 144.577 217.449 143.718 216.755 142.642C216.091 141.438 215.766 140.076 215.815 138.702C215.815 138.329 215.905 137.956 215.965 137.583C215.28 137.031 214.784 136.28 214.547 135.434C212.829 135.751 211.229 136.53 209.92 137.687C207.95 139.403 205.951 141.06 203.951 142.687C206.518 138.374 208.995 133.986 211.487 129.793C215.875 122.331 220.442 115.242 225.516 108.258C229.336 102.945 234.47 98.3183 235.097 92.4383C231.53 89.4536 229.053 85.6182 225.963 82.1111C225.806 81.922 225.661 81.7226 225.531 81.5142C222.303 81.7835 219.208 82.9233 216.576 84.8123C217.397 83.8422 218.203 82.8573 218.949 81.8275C225.71 72.5748 235.261 65.098 241.335 55.4572C242.063 54.3678 242.57 53.1457 242.827 51.8606L240.708 49.1743C240.11 48.4971 239.701 47.6748 239.52 46.7897C239.339 45.9046 239.394 44.9875 239.678 44.1301L239.529 43.9958C239.783 43.6973 240.037 43.4138 240.275 43.1004C241.291 41.8118 242.018 40.3209 242.409 38.7277C239.578 34.2964 236.05 30.3507 231.963 27.0424C226.411 27.4453 221.516 31.0569 216.606 33.8775C213.263 35.8076 209.94 37.7974 206.637 39.847C208.316 37.7509 209.72 35.4489 210.816 32.997C211.219 32.0445 211.486 31.0396 211.607 30.0122C211.334 29.8607 211.074 29.686 210.831 29.4899C206.713 26.504 202.894 23.1253 199.429 19.4014C198.917 19.592 198.419 19.8163 197.937 20.073C194.699 21.8384 191.574 23.8022 188.579 25.9529C189.067 24.5725 189.314 23.1188 189.311 21.6549C188.567 21.7583 187.81 21.6998 187.092 21.4834C186.373 21.267 185.71 20.8979 185.147 20.4013C182.461 18.0881 180.297 15.1332 177.685 12.7902C176.828 12.9986 176.014 13.3573 175.282 13.8498C168.253 18.6104 162.299 24.8784 155.583 30.0719C153.897 31.3852 152.195 32.6686 150.494 33.9521C150.948 32.6193 151.111 31.2045 150.971 29.8033C150.3 29.6238 149.674 29.3033 149.136 28.8631C145.912 26.2663 142.763 23.595 139.585 20.9535C138.764 21.2486 137.99 21.6608 137.286 22.1772C134.121 24.4393 131.128 26.9335 128.332 29.6391C128.259 29.078 128.139 28.5239 127.974 27.9826C127.354 28.2687 126.671 28.3889 125.991 28.3313C125.31 28.2737 124.657 28.0404 124.094 27.6543C121.483 25.7913 118.991 23.7677 116.632 21.5952C112.901 22.5802 110.319 25.2963 107.319 27.5647L105.827 28.7288C105.634 28.3556 105.414 27.9966 105.17 27.6543C104.228 27.7857 103.271 27.5623 102.484 27.0275C101.207 26.0753 99.9904 25.0435 98.8428 23.9382L98.3503 23.4756C97.0793 23.2329 95.7708 23.2685 94.5149 23.5801C87.635 25.4306 81.4715 30.1764 75.5617 34.3401C76.7108 32.997 77.8749 31.6389 79.0091 30.251C83.3221 24.9531 89.6497 19.1925 91.8435 12.4917C91.556 12.2073 91.3007 11.892 91.0824 11.5515C90.2616 10.1935 89.3363 8.83538 88.3663 7.50716C85.1036 5.60355 82.1705 3.18447 79.6807 0.34375C79.2064 0.467044 78.7424 0.626715 78.2928 0.821322C71.3532 3.80608 66.1597 9.38756 60.9663 14.6855C57.2652 18.4463 53.6835 22.3414 50.2211 26.3111C50.0123 25.7865 49.7471 25.2861 49.4302 24.8187C48.5822 25.089 47.6786 25.1348 46.8076 24.9517C45.9366 24.7686 45.128 24.3629 44.4606 23.7741C42.9682 22.5354 41.3564 21.4012 39.7447 20.2521C38.3232 20.3403 36.938 20.7371 35.6855 21.4149C34.4329 22.0927 33.343 23.0353 32.4917 24.177C24.7463 34.2506 3.01726 61.7252 10.2553 77.246C6.65018 80.7202 3.62688 84.7513 1.30103 89.185C0.831202 90.2191 0.509636 91.3143 0.345886 92.4383Z" fill="white"/>
</svg>
