<svg width="8" height="14" viewBox="0 0 8 14" fill="none" xmlns="http://www.w3.org/2000/svg">
<path d="M1.38295 13.262C1.28621 13.3281 1.17178 13.3634 1.05462 13.3634C0.937466 13.3634 0.823035 13.3281 0.726298 13.262C0.574413 13.1688 0.461799 13.0233 0.409587 12.853C0.357374 12.6826 0.369198 12.499 0.442788 12.3367L6.12874 0.815569C6.16612 0.742827 6.21916 0.679298 6.28409 0.629569C6.34902 0.57984 6.42419 0.545142 6.50416 0.528006C6.58413 0.51087 6.66689 0.511707 6.7465 0.530465C6.8261 0.549224 6.90057 0.58543 6.96447 0.636468C7.11635 0.729665 7.22897 0.875119 7.28118 1.0455C7.33339 1.21587 7.32161 1.39946 7.24802 1.56176L1.57696 13.0829C1.52509 13.1551 1.45908 13.216 1.38295 13.262Z" fill="white"/>
</svg>
