<svg width="20" height="22" viewBox="0 0 20 22" fill="none" xmlns="http://www.w3.org/2000/svg">
<path d="M18.8464 12.0372L1.65422 21.5287C1.49766 21.6003 1.31924 21.6077 1.15734 21.549C0.995439 21.4904 0.863039 21.3706 0.788662 21.2153C0.741105 21.1449 0.707988 21.0657 0.691244 20.9825C0.674501 20.8992 0.674449 20.8134 0.691108 20.7301C0.707766 20.6468 0.740813 20.5677 0.788298 20.4972C0.835783 20.4268 0.896771 20.3665 0.96774 20.3198L17.6674 11.1119L12.9366 1.69497C12.8944 1.62273 12.867 1.54277 12.8562 1.45978C12.8453 1.3768 12.8512 1.2925 12.8734 1.21182C12.8957 1.13115 12.9339 1.05575 12.9857 0.990068C13.0376 0.924388 13.1021 0.869747 13.1754 0.82939C13.3379 0.764582 13.5193 0.765753 13.681 0.832647C13.8426 0.89954 13.9718 1.02688 14.041 1.18757L19.0553 11.1865C19.1313 11.3291 19.152 11.4948 19.1135 11.6517C19.0749 11.8087 18.9798 11.9459 18.8464 12.0372Z" fill="white"/>
</svg>
