<svg width="18" height="3" viewBox="0 0 18 3" fill="none" xmlns="http://www.w3.org/2000/svg">
<path d="M0.611146 2.42497C0.70884 2.48772 0.823421 2.51897 0.939448 2.51451L16.8333 1.46985C17.0105 1.45231 17.1756 1.37197 17.2988 1.24333C17.4219 1.1147 17.495 0.946246 17.5048 0.768427C17.519 0.686843 17.5142 0.603074 17.4907 0.523675C17.4672 0.444276 17.4256 0.371395 17.3692 0.310712C17.3129 0.25003 17.2433 0.203207 17.1658 0.173876C17.0884 0.144545 17.0052 0.133503 16.9228 0.141631L1.02901 1.17137C0.849349 1.18932 0.682283 1.27179 0.558794 1.40351C0.435305 1.53523 0.363751 1.70727 0.357422 1.88771C0.340114 1.99243 0.355137 2.09995 0.400461 2.19593C0.445785 2.29191 0.519279 2.3718 0.611146 2.42497Z" fill="white"/>
</svg>
