<svg width="8" height="14" viewBox="0 0 8 14" fill="none" xmlns="http://www.w3.org/2000/svg">
<path d="M6.86645 13.262C6.96319 13.3281 7.07762 13.3634 7.19478 13.3634C7.31193 13.3634 7.42634 13.3281 7.52308 13.262C7.67258 13.1666 7.78323 13.0211 7.83519 12.8515C7.88715 12.682 7.87703 12.4995 7.80663 12.3367L2.12068 0.815569C2.0833 0.742827 2.03024 0.679298 1.96531 0.629569C1.90038 0.57984 1.82521 0.545142 1.74524 0.528006C1.66527 0.51087 1.58251 0.511707 1.5029 0.530465C1.4233 0.549224 1.34886 0.58543 1.28495 0.636468C1.13284 0.729575 1.0191 0.874097 0.964349 1.04383C0.909595 1.21357 0.917447 1.39731 0.986483 1.56176L6.67244 13.0829C6.7207 13.1582 6.78751 13.2199 6.86645 13.262Z" fill="white"/>
</svg>
